<?xml version="1.0" encoding="UTF-8" standalone="no"?>
<svg xmlns="http://www.w3.org/2000/svg" version="1.0" width="580" height="580">
 <metadata id="metadata2975"/>
 <path id="path4139" d="M 107,155.9 C 47.7,206 37.8,300 78,365 c 40,73 125,113 206,113 74,-1 148,-29 196,-86 38,-44 58,-105 46,-162 -8,-65 -74,-114 -138,-109 -34,3 -66,16 -93,35 -25,-23 -60,-36 -94,-35 -34,0.4 -68,13.5 -94,34.9 z m 128,54 c -30.8,38 -55,81 -73.9,126 -11.3,29 28,58 51.7,36.7 18.2,-19.8 24.4,-48 39.9,-70 12.6,-17.8 26.5,-49 43,-55 28.4,32 51,69 66,109 15.5,26.6 61.9,14 61,-16.9 -3.1,-27 -18.4,-51 -31.4,-75 C 379,243 364,222 347,203 c 23.9,-13.4 54,-21.7 80,-7.2 20,9.7 33.7,30.4 34,52.6 7.5,59.8 -34.8,116 -86,142 C 306,424 214,414 158,359 124,327 110,272 134,230 c 13,-25 40,-42 68,-42 12.8,0.1 52,6.2 33,21.9 z" mix-blend-mode="normal" solid-color="#000000" opacity="0.8" color-interpolation-filters="linearRGB" filter-gaussianBlur-deviation="0" color="#000000" image-rendering="auto" color-rendering="auto" fill-rule="evenodd" stroke-width="64" isolation="auto" color-interpolation="sRGB" solid-opacity="1" fill="#ac39ac" stroke-linejoin="round" filter-blend-mode="normal" stroke="#ffffff" shape-rendering="auto"/>
 <path d="M 107,155.9 C 47.7,206 37.8,300 78,365 c 40,73 125,113 206,113 74,-1 148,-29 196,-86 38,-44 58,-105 46,-162 -8,-65 -74,-114 -138,-109 -34,3 -66,16 -93,35 -25,-23 -60,-36 -94,-35 -34,0.4 -68,13.5 -94,34.9 z m 128,54 c -30.8,38 -55,81 -73.9,126 -11.3,29 28,58 51.7,36.7 18.2,-19.8 24.4,-48 39.9,-70 12.6,-17.8 26.5,-49 43,-55 28.4,32 51,69 66,109 15.5,26.6 61.9,14 61,-16.9 -3.1,-27 -18.4,-51 -31.4,-75 C 379,243 364,222 347,203 c 23.9,-13.4 54,-21.7 80,-7.2 20,9.7 33.7,30.4 34,52.6 7.5,59.8 -34.8,116 -86,142 C 306,424 214,414 158,359 124,327 110,272 134,230 c 13,-25 40,-42 68,-42 12.8,0.1 52,6.2 33,21.9 z" id="path7165" fill="#652506" fill-rule="evenodd" stroke-linecap="round" stroke-width="73"/>
</svg>
