<?xml version="1.0" encoding="UTF-8" standalone="no"?>
<svg xmlns:rdf="http://www.w3.org/1999/02/22-rdf-syntax-ns#" xmlns="http://www.w3.org/2000/svg" height="580" width="580" version="1.0" xmlns:cc="http://creativecommons.org/ns#" xmlns:dc="http://purl.org/dc/elements/1.1/">
 <title>bicycle</title>
 <metadata>
  <rdf:RDF>
   <cc:Work rdf:about="">
    <dc:format>image/svg+xml</dc:format>
    <dc:type rdf:resource="http://purl.org/dc/dcmitype/StillImage"/>
    <dc:title>bicycle</dc:title>
   </cc:Work>
  </rdf:RDF>
 </metadata>
 <path d="m406 87h-87v87h-15.623c9.2314-12.99 8.0216-33.466-3.3651-45.006-10.55-12.13-21.91-12.3-39.01-12.99l-108.54 0.80469c-9.59 4.59-7.71 19.28-7.46 28.2-1.0114 20.234 10.667 46.451 29 58l-16.327 29c-60.976 9.3892-110.51 73.952-99.106 135 9.6021 56.311 64.62 101.72 122.07 97.828 59.533-2.8219 111.64-57.593 110.59-117.35l28.699-19.309c-7.8032 41.854 9.8081 87.408 44.492 112.36 34.743 26.584 85.271 33.062 124.03 11.336 46.148-24.106 74.124-81.235 59.998-132.13-11.272-43.776-49.522-79.385-94.131-87.059l-10.5-31.56c28.74-26.64 27.6-79.67-5.01-102.78-10.26-7.794-19.84-11.626-32.8-11.34z" fill="#fff"/>
 <path fill="#5500AA" d="m347.98 116.16v29l42.53-0.16c15.49 0 26.99 10.62-0.25 20.7-11.49 4.25-13.26 22.16-13.26 37.3h-145v-29l22.26-5.66c28.09-7.14 35.72-23.34 6.74-23.34l-86.84 0.53c-0.16 10.71-0.16 28.47 14.35 28.47h14.49v29l-27 57.89c-0.61-0.01-1.2 0-1.81 0-46.73 0-86.956 40.22-86.956 86.95s40.226 86.96 86.956 86.96 86.95-40.23 86.95-86.96c0-10.02-2.08-19.89-5.43-28.98h12.68c21.73 0 28.74-11.16 36.42-18.83l84.79-67.87 9.22 37.04c-29.64 14.05-50.73 44.74-50.73 78.8 0 46.73 40.23 86.96 86.96 86.96s86.95-40.22 86.95-86.95c0-46.74-40.22-86.96-86.96-86.96-0.91 0-1.81-0.03-2.71 0l-20.09-57.88-6.24-14.9c40-10.27 36-66.77-0.02-72.11h-58zm0.02 115.84l-76.89 57.87h-34.42c-7.64-8.2-16.95-15.62-27.08-20.49l16.39-37.37 122-0.01zm-173.81 57.87c29.15 0 57.97 28.82 57.97 57.97s-28.82 57.97-57.97 57.97-57.97-28.82-57.97-57.97 28.82-57.97 57.97-57.97zm260.86 0.16c29.15 0 57.97 28.82 57.97 57.97s-28.82 57.97-57.97 57.97-57.97-28.82-57.97-57.97 28.82-57.97 57.97-57.97z"/>
</svg>
