<?xml version="1.0" encoding="UTF-8" standalone="no"?>
<!DOCTYPE svg PUBLIC "-//W3C//DTD SVG 1.1//EN"
 "http://www.w3.org/Graphics/SVG/1.1/DTD/svg11.dtd">
<!-- Generated by graphviz version 7.0.0 (20221023.0053)
 -->
<!-- Title: G Pages: 1 -->
<svg width="770pt" height="530pt"
 viewBox="0.00 0.00 770.16 530.11" xmlns="http://www.w3.org/2000/svg" xmlns:xlink="http://www.w3.org/1999/xlink">
<g id="graph0" class="graph" transform="scale(1 1) rotate(0) translate(4 526.11)">
<title>G</title><style>.edge>path:hover{stroke-width:8}</style>
<polygon fill="white" stroke="none" points="-4,4 -4,-526.11 766.16,-526.11 766.16,4 -4,4"/>
<!-- __main__ -->
<g id="node1" class="node">
<title>__main__</title><style>.edge>path:hover{stroke-width:8}</style>
<ellipse fill="#6b2e2e" stroke="black" cx="47.86" cy="-493.12" rx="34.96" ry="18"/>
<text text-anchor="middle" x="47.86" y="-490.62" font-family="Helvetica,sans-Serif" font-size="10.00" fill="#ffffff">__main__</text>
</g>
<!-- geojson -->
<g id="node2" class="node">
<title>geojson</title><style>.edge>path:hover{stroke-width:8}</style>
<ellipse fill="#bfc040" stroke="black" cx="556.86" cy="-406.92" rx="29.37" ry="18"/>
<text text-anchor="middle" x="556.86" y="-404.42" font-family="Helvetica,sans-Serif" font-size="10.00" fill="#000000">geojson</text>
</g>
<!-- pkg_resources -->
<g id="node3" class="node">
<title>pkg_resources</title><style>.edge>path:hover{stroke-width:8}</style>
<ellipse fill="#3db83d" stroke="black" cx="47.86" cy="-406.92" rx="47.19" ry="18"/>
<text text-anchor="middle" x="47.86" y="-404.42" font-family="Helvetica,sans-Serif" font-size="10.00" fill="#000000">pkg_resources</text>
</g>
<!-- pkg_resources&#45;&gt;__main__ -->
<g id="edge1" class="edge">
<title>pkg_resources&#45;&gt;__main__</title><style>.edge>path:hover{stroke-width:8}</style>
<path fill="none" stroke="black" d="M47.86,-425.37C47.86,-436.32 47.86,-450.71 47.86,-463.32"/>
<polygon fill="#3db83d" stroke="black" points="44.36,-463.18 47.86,-473.18 51.36,-463.19 44.36,-463.18"/>
</g>
<!-- requests -->
<g id="node4" class="node">
<title>requests</title><style>.edge>path:hover{stroke-width:8}</style>
<ellipse fill="#40bfc0" stroke="black" cx="439.86" cy="-406.92" rx="31.58" ry="18"/>
<text text-anchor="middle" x="439.86" y="-404.42" font-family="Helvetica,sans-Serif" font-size="10.00" fill="#000000">requests</text>
</g>
<!-- shapely -->
<g id="node5" class="node">
<title>shapely</title><style>.edge>path:hover{stroke-width:8}</style>
<ellipse fill="#3b3bce" stroke="black" cx="633.86" cy="-406.92" rx="29.37" ry="18"/>
<text text-anchor="middle" x="633.86" y="-404.42" font-family="Helvetica,sans-Serif" font-size="10.00" fill="#ffffff">shapely</text>
</g>
<!-- shapely_geometry -->
<g id="node6" class="node">
<title>shapely_geometry</title><style>.edge>path:hover{stroke-width:8}</style>
<ellipse fill="#4040c0" stroke="black" cx="721.86" cy="-406.92" rx="40.11" ry="21.43"/>
<text text-anchor="middle" x="721.86" y="-409.92" font-family="Helvetica,sans-Serif" font-size="10.00" fill="#ffffff">shapely.</text>
<text text-anchor="middle" x="721.86" y="-398.92" font-family="Helvetica,sans-Serif" font-size="10.00" fill="#ffffff">geometry</text>
</g>
<!-- shapely_geometry_Polygon -->
<g id="node7" class="node">
<title>shapely_geometry_Polygon</title><style>.edge>path:hover{stroke-width:8}</style>
<ellipse fill="#4949ac" stroke="black" cx="499.86" cy="-493.12" rx="41.94" ry="28.98"/>
<text text-anchor="middle" x="499.86" y="-501.62" font-family="Helvetica,sans-Serif" font-size="10.00" fill="#ffffff">shapely.</text>
<text text-anchor="middle" x="499.86" y="-490.62" font-family="Helvetica,sans-Serif" font-size="10.00" fill="#ffffff">geometry.</text>
<text text-anchor="middle" x="499.86" y="-479.62" font-family="Helvetica,sans-Serif" font-size="10.00" fill="#ffffff">Polygon</text>
</g>
<!-- wahoomc___main__ -->
<g id="node8" class="node">
<title>wahoomc___main__</title><style>.edge>path:hover{stroke-width:8}</style>
<ellipse fill="#ac49ac" stroke="black" cx="156.86" cy="-21.21" rx="43.68" ry="21.43"/>
<text text-anchor="middle" x="156.86" y="-24.21" font-family="Helvetica,sans-Serif" font-size="10.00" fill="#ffffff">wahoomc.</text>
<text text-anchor="middle" x="156.86" y="-13.21" font-family="Helvetica,sans-Serif" font-size="10.00" fill="#ffffff">__main__</text>
</g>
<!-- wahoomc_main -->
<g id="node15" class="node">
<title>wahoomc_main</title><style>.edge>path:hover{stroke-width:8}</style>
<ellipse fill="#a838a8" stroke="black" cx="156.86" cy="-96.43" rx="48.72" ry="18"/>
<text text-anchor="middle" x="156.86" y="-93.93" font-family="Helvetica,sans-Serif" font-size="10.00" fill="#ffffff">wahoomc.main</text>
</g>
<!-- wahoomc___main__&#45;&gt;wahoomc_main -->
<g id="edge23" class="edge">
<title>wahoomc___main__&#45;&gt;wahoomc_main</title><style>.edge>path:hover{stroke-width:8}</style>
<path fill="none" stroke="black" d="M156.86,-43C156.86,-50.41 156.86,-58.89 156.86,-66.84"/>
<polygon fill="#ac49ac" stroke="black" points="153.36,-66.78 156.86,-76.78 160.36,-66.78 153.36,-66.78"/>
</g>
<!-- wahoomc_constants -->
<g id="node9" class="node">
<title>wahoomc_constants</title><style>.edge>path:hover{stroke-width:8}</style>
<ellipse fill="#f910f9" stroke="black" cx="156.86" cy="-406.92" rx="43.68" ry="21.43"/>
<text text-anchor="middle" x="156.86" y="-409.92" font-family="Helvetica,sans-Serif" font-size="10.00" fill="#ffffff">wahoomc.</text>
<text text-anchor="middle" x="156.86" y="-398.92" font-family="Helvetica,sans-Serif" font-size="10.00" fill="#ffffff">constants</text>
</g>
<!-- wahoomc_constants_functions -->
<g id="node10" class="node">
<title>wahoomc_constants_functions</title><style>.edge>path:hover{stroke-width:8}</style>
<ellipse fill="#d024d0" stroke="black" cx="156.86" cy="-328.49" rx="73.58" ry="21.43"/>
<text text-anchor="middle" x="156.86" y="-331.49" font-family="Helvetica,sans-Serif" font-size="10.00" fill="#ffffff">wahoomc.</text>
<text text-anchor="middle" x="156.86" y="-320.49" font-family="Helvetica,sans-Serif" font-size="10.00" fill="#ffffff">constants_functions</text>
</g>
<!-- wahoomc_constants_functions&#45;&gt;wahoomc_constants -->
<g id="edge8" class="edge">
<title>wahoomc_constants_functions&#45;&gt;wahoomc_constants</title><style>.edge>path:hover{stroke-width:8}</style>
<path fill="none" stroke="black" d="M156.86,-350.38C156.86,-357.54 156.86,-365.73 156.86,-373.58"/>
<polygon fill="#d024d0" stroke="black" points="153.36,-373.55 156.86,-383.55 160.36,-373.55 153.36,-373.55"/>
</g>
<!-- wahoomc_downloader -->
<g id="node11" class="node">
<title>wahoomc_downloader</title><style>.edge>path:hover{stroke-width:8}</style>
<ellipse fill="#a135a1" stroke="black" cx="366.86" cy="-250.07" rx="46.84" ry="21.43"/>
<text text-anchor="middle" x="366.86" y="-253.07" font-family="Helvetica,sans-Serif" font-size="10.00" fill="#ffffff">wahoomc.</text>
<text text-anchor="middle" x="366.86" y="-242.07" font-family="Helvetica,sans-Serif" font-size="10.00" fill="#ffffff">downloader</text>
</g>
<!-- wahoomc_downloader&#45;&gt;requests -->
<g id="edge4" class="edge">
<title>wahoomc_downloader&#45;&gt;requests</title><style>.edge>path:hover{stroke-width:8}</style>
<path fill="none" stroke="black" d="M403.35,-264.02C422.66,-272.96 444.66,-286.95 455.86,-307.28 468.07,-329.43 461.18,-358.35 452.99,-379.13"/>
<polygon fill="#a135a1" stroke="black" points="449.88,-377.51 449.15,-388.08 456.31,-380.27 449.88,-377.51"/>
</g>
<!-- wahoomc_downloader&#45;&gt;wahoomc_constants -->
<g id="edge9" class="edge">
<title>wahoomc_downloader&#45;&gt;wahoomc_constants</title><style>.edge>path:hover{stroke-width:8}</style>
<path fill="none" stroke="black" d="M441.86,-329.49C436.74,-340.71 433.61,-343.66 422.86,-349.71 356.46,-387.04 268.07,-399.65 211.8,-403.86"/>
<polygon fill="#a135a1" stroke="black" points="211.9,-400.35 202.16,-404.51 212.37,-407.33 211.9,-400.35"/>
<path fill="none" stroke="black" d="M399.25,-265.66C424.57,-279.37 453.67,-301.62 441.86,-327.49"/>
</g>
<!-- wahoomc_downloader&#45;&gt;wahoomc_constants_functions -->
<g id="edge14" class="edge">
<title>wahoomc_downloader&#45;&gt;wahoomc_constants_functions</title><style>.edge>path:hover{stroke-width:8}</style>
<path fill="none" stroke="black" d="M330.76,-264.2C298.2,-276.05 249.83,-293.66 212.36,-307.29"/>
<polygon fill="#a135a1" stroke="black" points="211.23,-303.98 203.03,-310.69 213.63,-310.56 211.23,-303.98"/>
</g>
<!-- wahoomc_file_directory_functions -->
<g id="node12" class="node">
<title>wahoomc_file_directory_functions</title><style>.edge>path:hover{stroke-width:8}</style>
<ellipse fill="#db2fdb" stroke="black" cx="330.86" cy="-328.49" rx="82.96" ry="21.43"/>
<text text-anchor="middle" x="330.86" y="-331.49" font-family="Helvetica,sans-Serif" font-size="10.00" fill="#ffffff">wahoomc.</text>
<text text-anchor="middle" x="330.86" y="-320.49" font-family="Helvetica,sans-Serif" font-size="10.00" fill="#ffffff">file_directory_functions</text>
</g>
<!-- wahoomc_downloader&#45;&gt;wahoomc_file_directory_functions -->
<g id="edge18" class="edge">
<title>wahoomc_downloader&#45;&gt;wahoomc_file_directory_functions</title><style>.edge>path:hover{stroke-width:8}</style>
<path fill="none" stroke="black" d="M357.4,-271.15C353.77,-278.86 349.53,-287.85 345.52,-296.36"/>
<polygon fill="#a135a1" stroke="black" points="342.37,-294.84 341.28,-305.38 348.7,-297.82 342.37,-294.84"/>
</g>
<!-- wahoomc_geofabrik -->
<g id="node13" class="node">
<title>wahoomc_geofabrik</title><style>.edge>path:hover{stroke-width:8}</style>
<ellipse fill="#993399" stroke="black" cx="534.86" cy="-250.07" rx="43.68" ry="21.43"/>
<text text-anchor="middle" x="534.86" y="-253.07" font-family="Helvetica,sans-Serif" font-size="10.00" fill="#ffffff">wahoomc.</text>
<text text-anchor="middle" x="534.86" y="-242.07" font-family="Helvetica,sans-Serif" font-size="10.00" fill="#ffffff">geofabrik</text>
</g>
<!-- wahoomc_geofabrik&#45;&gt;geojson -->
<g id="edge2" class="edge">
<title>wahoomc_geofabrik&#45;&gt;geojson</title><style>.edge>path:hover{stroke-width:8}</style>
<path fill="none" stroke="black" d="M556.86,-329.49C555.05,-345.25 554.94,-362.95 555.32,-377.35"/>
<polygon fill="#993399" stroke="black" points="551.81,-377.18 555.68,-387.04 558.81,-376.92 551.81,-377.18"/>
</g>
<!-- wahoomc_geofabrik&#45;&gt;shapely -->
<g id="edge5" class="edge">
<title>wahoomc_geofabrik&#45;&gt;shapely</title><style>.edge>path:hover{stroke-width:8}</style>
<path fill="none" stroke="black" d="M556.86,-329.49C555.21,-343.88 583.34,-368.57 606.06,-385.99"/>
<polygon fill="#993399" stroke="black" points="603.74,-388.62 613.84,-391.82 607.93,-383.02 603.74,-388.62"/>
</g>
<!-- wahoomc_geofabrik&#45;&gt;shapely_geometry -->
<g id="edge6" class="edge">
<title>wahoomc_geofabrik&#45;&gt;shapely_geometry</title><style>.edge>path:hover{stroke-width:8}</style>
<path fill="none" stroke="black" d="M556.86,-329.49C556.09,-336.25 631.14,-368.55 680.28,-388.94"/>
<polygon fill="#993399" stroke="black" points="678.65,-392.05 689.23,-392.64 681.33,-385.58 678.65,-392.05"/>
</g>
<!-- wahoomc_geofabrik&#45;&gt;shapely_geometry_Polygon -->
<g id="edge7" class="edge">
<title>wahoomc_geofabrik&#45;&gt;shapely_geometry_Polygon</title><style>.edge>path:hover{stroke-width:8}</style>
<path fill="none" stroke="black" d="M556.86,-329.49C553.43,-359.45 530.2,-357.76 518.86,-385.71 510.26,-406.88 505.55,-431.99 502.96,-452.5"/>
<polygon fill="#993399" stroke="black" points="499.52,-451.84 501.87,-462.17 506.47,-452.62 499.52,-451.84"/>
</g>
<!-- wahoomc_geofabrik&#45;&gt;wahoomc_constants -->
<g id="edge10" class="edge">
<title>wahoomc_geofabrik&#45;&gt;wahoomc_constants</title><style>.edge>path:hover{stroke-width:8}</style>
<path fill="none" stroke="black" d="M556.86,-329.49C552.91,-363.97 319.72,-390.52 211.25,-401.02"/>
<polygon fill="#993399" stroke="black" points="211.04,-397.52 201.42,-401.96 211.71,-404.49 211.04,-397.52"/>
<path fill="none" stroke="black" d="M545.25,-271.13C551.98,-286.33 559.11,-307.88 556.86,-327.49"/>
</g>
<!-- wahoomc_input -->
<g id="node14" class="node">
<title>wahoomc_input</title><style>.edge>path:hover{stroke-width:8}</style>
<ellipse fill="#b83db8" stroke="black" cx="48.86" cy="-171.64" rx="48.72" ry="18"/>
<text text-anchor="middle" x="48.86" y="-169.14" font-family="Helvetica,sans-Serif" font-size="10.00" fill="#ffffff">wahoomc.input</text>
</g>
<!-- wahoomc_input&#45;&gt;wahoomc_constants -->
<g id="edge11" class="edge">
<title>wahoomc_input&#45;&gt;wahoomc_constants</title><style>.edge>path:hover{stroke-width:8}</style>
<path fill="none" stroke="black" d="M42.1,-189.86C30.1,-223.52 9.16,-299.12 40.86,-349.71 45.22,-356.67 82.77,-374.15 113.99,-387.79"/>
<polygon fill="#b83db8" stroke="black" points="112.32,-390.88 122.88,-391.64 115.1,-384.45 112.32,-390.88"/>
</g>
<!-- wahoomc_main&#45;&gt;wahoomc_input -->
<g id="edge22" class="edge">
<title>wahoomc_main&#45;&gt;wahoomc_input</title><style>.edge>path:hover{stroke-width:8}</style>
<path fill="none" stroke="black" d="M134.22,-112.77C118.67,-123.32 97.8,-137.46 80.6,-149.13"/>
<polygon fill="#a838a8" stroke="black" points="79.04,-145.95 72.72,-154.46 82.96,-151.75 79.04,-145.95"/>
</g>
<!-- wahoomc_osm_maps_functions -->
<g id="node16" class="node">
<title>wahoomc_osm_maps_functions</title><style>.edge>path:hover{stroke-width:8}</style>
<ellipse fill="#993399" stroke="black" cx="366.86" cy="-171.64" rx="77.56" ry="21.43"/>
<text text-anchor="middle" x="366.86" y="-174.64" font-family="Helvetica,sans-Serif" font-size="10.00" fill="#ffffff">wahoomc.</text>
<text text-anchor="middle" x="366.86" y="-163.64" font-family="Helvetica,sans-Serif" font-size="10.00" fill="#ffffff">osm_maps_functions</text>
</g>
<!-- wahoomc_main&#45;&gt;wahoomc_osm_maps_functions -->
<g id="edge24" class="edge">
<title>wahoomc_main&#45;&gt;wahoomc_osm_maps_functions</title><style>.edge>path:hover{stroke-width:8}</style>
<path fill="none" stroke="black" d="M191.54,-109.52C223.45,-120.64 271.41,-137.36 309.1,-150.5"/>
<polygon fill="#a838a8" stroke="black" points="307.92,-153.8 318.51,-153.78 310.22,-147.19 307.92,-153.8"/>
</g>
<!-- wahoomc_setup_functions -->
<g id="node17" class="node">
<title>wahoomc_setup_functions</title><style>.edge>path:hover{stroke-width:8}</style>
<ellipse fill="#a135a1" stroke="black" cx="156.86" cy="-250.07" rx="60.62" ry="21.43"/>
<text text-anchor="middle" x="156.86" y="-253.07" font-family="Helvetica,sans-Serif" font-size="10.00" fill="#ffffff">wahoomc.</text>
<text text-anchor="middle" x="156.86" y="-242.07" font-family="Helvetica,sans-Serif" font-size="10.00" fill="#ffffff">setup_functions</text>
</g>
<!-- wahoomc_main&#45;&gt;wahoomc_setup_functions -->
<g id="edge25" class="edge">
<title>wahoomc_main&#45;&gt;wahoomc_setup_functions</title><style>.edge>path:hover{stroke-width:8}</style>
<path fill="none" stroke="black" d="M156.86,-114.82C156.86,-139.79 156.86,-186.22 156.86,-217.38"/>
<polygon fill="#a838a8" stroke="black" points="153.36,-216.99 156.86,-226.99 160.36,-216.99 153.36,-216.99"/>
</g>
<!-- wahoomc_osm_maps_functions&#45;&gt;wahoomc_constants -->
<g id="edge12" class="edge">
<title>wahoomc_osm_maps_functions&#45;&gt;wahoomc_constants</title><style>.edge>path:hover{stroke-width:8}</style>
<path fill="none" stroke="black" d="M392.36,-192.27C403.39,-202.09 415.45,-214.85 422.86,-228.85 443.75,-268.31 460.39,-286.88 441.86,-327.49"/>
</g>
<!-- wahoomc_osm_maps_functions&#45;&gt;wahoomc_constants_functions -->
<g id="edge15" class="edge">
<title>wahoomc_osm_maps_functions&#45;&gt;wahoomc_constants_functions</title><style>.edge>path:hover{stroke-width:8}</style>
<path fill="none" stroke="black" d="M344.73,-192.48C328.98,-207.22 307.85,-228.3 291.86,-249.07"/>
<path fill="none" stroke="black" d="M291.86,-251.07C272.19,-276.61 241.4,-294.98 214.18,-307.29"/>
<polygon fill="#993399" stroke="black" points="213.14,-303.93 205.35,-311.12 215.92,-310.36 213.14,-303.93"/>
</g>
<!-- wahoomc_osm_maps_functions&#45;&gt;wahoomc_downloader -->
<g id="edge17" class="edge">
<title>wahoomc_osm_maps_functions&#45;&gt;wahoomc_downloader</title><style>.edge>path:hover{stroke-width:8}</style>
<path fill="none" stroke="black" d="M366.86,-193.52C366.86,-200.68 366.86,-208.88 366.86,-216.73"/>
<polygon fill="#993399" stroke="black" points="363.36,-216.69 366.86,-226.69 370.36,-216.69 363.36,-216.69"/>
</g>
<!-- wahoomc_osm_maps_functions&#45;&gt;wahoomc_file_directory_functions -->
<g id="edge19" class="edge">
<title>wahoomc_osm_maps_functions&#45;&gt;wahoomc_file_directory_functions</title><style>.edge>path:hover{stroke-width:8}</style>
<path fill="none" stroke="black" d="M291.86,-251.07C280.62,-265.67 289.35,-284.01 301.38,-299.06"/>
<polygon fill="#993399" stroke="black" points="298.51,-301.1 307.72,-306.35 303.79,-296.51 298.51,-301.1"/>
</g>
<!-- wahoomc_osm_maps_functions&#45;&gt;wahoomc_geofabrik -->
<g id="edge21" class="edge">
<title>wahoomc_osm_maps_functions&#45;&gt;wahoomc_geofabrik</title><style>.edge>path:hover{stroke-width:8}</style>
<path fill="none" stroke="black" d="M406.25,-190.56C432.45,-202.48 466.8,-218.11 493.41,-230.21"/>
<polygon fill="#993399" stroke="black" points="491.64,-233.25 502.19,-234.2 494.53,-226.88 491.64,-233.25"/>
</g>
<!-- wahoomc_setup_functions&#45;&gt;pkg_resources -->
<g id="edge3" class="edge">
<title>wahoomc_setup_functions&#45;&gt;pkg_resources</title><style>.edge>path:hover{stroke-width:8}</style>
<path fill="none" stroke="black" d="M114.85,-265.94C89.27,-277.9 60.45,-297.7 54.86,-327.49"/>
<path fill="none" stroke="black" d="M54.86,-329.49C51.92,-345.15 50.2,-362.84 49.2,-377.26"/>
<polygon fill="#a135a1" stroke="black" points="45.73,-376.78 48.61,-386.98 52.71,-377.21 45.73,-376.78"/>
</g>
<!-- wahoomc_setup_functions&#45;&gt;wahoomc_constants -->
<g id="edge13" class="edge">
<title>wahoomc_setup_functions&#45;&gt;wahoomc_constants</title><style>.edge>path:hover{stroke-width:8}</style>
<path fill="none" stroke="black" d="M54.86,-329.49C51.82,-345.71 86.94,-368.97 116.79,-385.56"/>
<polygon fill="#a135a1" stroke="black" points="114.86,-388.5 125.32,-390.19 118.2,-382.35 114.86,-388.5"/>
</g>
<!-- wahoomc_setup_functions&#45;&gt;wahoomc_constants_functions -->
<g id="edge16" class="edge">
<title>wahoomc_setup_functions&#45;&gt;wahoomc_constants_functions</title><style>.edge>path:hover{stroke-width:8}</style>
<path fill="none" stroke="black" d="M156.86,-271.95C156.86,-279.11 156.86,-287.3 156.86,-295.15"/>
<polygon fill="#a135a1" stroke="black" points="153.36,-295.12 156.86,-305.12 160.36,-295.12 153.36,-295.12"/>
</g>
<!-- wahoomc_setup_functions&#45;&gt;wahoomc_file_directory_functions -->
<g id="edge20" class="edge">
<title>wahoomc_setup_functions&#45;&gt;wahoomc_file_directory_functions</title><style>.edge>path:hover{stroke-width:8}</style>
<path fill="none" stroke="black" d="M193.76,-267.27C218.7,-278.23 251.99,-292.85 279.51,-304.94"/>
<polygon fill="#a135a1" stroke="black" points="277.8,-308.01 288.36,-308.83 280.61,-301.6 277.8,-308.01"/>
</g>
</g>
</svg>
