<?xml version="1.0" encoding="UTF-8" standalone="no"?>
<!DOCTYPE svg PUBLIC "-//W3C//DTD SVG 1.1//EN"
 "http://www.w3.org/Graphics/SVG/1.1/DTD/svg11.dtd">
<!-- Generated by graphviz version 7.0.0 (20221023.0053)
 -->
<!-- Title: G Pages: 1 -->
<svg width="765pt" height="530pt"
 viewBox="0.00 0.00 765.24 530.11" xmlns="http://www.w3.org/2000/svg" xmlns:xlink="http://www.w3.org/1999/xlink">
<g id="graph0" class="graph" transform="scale(1 1) rotate(0) translate(4 526.11)">
<title>G</title><style>.edge>path:hover{stroke-width:8}</style>
<polygon fill="white" stroke="none" points="-4,4 -4,-526.11 761.24,-526.11 761.24,4 -4,4"/>
<!-- __main__ -->
<g id="node1" class="node">
<title>__main__</title><style>.edge>path:hover{stroke-width:8}</style>
<ellipse fill="#6b2e2e" stroke="black" cx="683.43" cy="-493.12" rx="34.96" ry="18"/>
<text text-anchor="middle" x="683.43" y="-490.62" font-family="Helvetica,sans-Serif" font-size="10.00" fill="#ffffff">__main__</text>
</g>
<!-- geojson -->
<g id="node2" class="node">
<title>geojson</title><style>.edge>path:hover{stroke-width:8}</style>
<ellipse fill="#bfc040" stroke="black" cx="29.43" cy="-406.92" rx="29.37" ry="18"/>
<text text-anchor="middle" x="29.43" y="-404.42" font-family="Helvetica,sans-Serif" font-size="10.00" fill="#000000">geojson</text>
</g>
<!-- pkg_resources -->
<g id="node3" class="node">
<title>pkg_resources</title><style>.edge>path:hover{stroke-width:8}</style>
<ellipse fill="#3db83d" stroke="black" cx="683.43" cy="-406.92" rx="47.19" ry="18"/>
<text text-anchor="middle" x="683.43" y="-404.42" font-family="Helvetica,sans-Serif" font-size="10.00" fill="#000000">pkg_resources</text>
</g>
<!-- pkg_resources&#45;&gt;__main__ -->
<g id="edge1" class="edge">
<title>pkg_resources&#45;&gt;__main__</title><style>.edge>path:hover{stroke-width:8}</style>
<path fill="none" stroke="black" d="M683.43,-425.37C683.43,-436.32 683.43,-450.71 683.43,-463.32"/>
<polygon fill="#3db83d" stroke="black" points="679.93,-463.18 683.43,-473.18 686.93,-463.19 679.93,-463.18"/>
</g>
<!-- requests -->
<g id="node4" class="node">
<title>requests</title><style>.edge>path:hover{stroke-width:8}</style>
<ellipse fill="#40bfc0" stroke="black" cx="354.43" cy="-493.12" rx="31.58" ry="18"/>
<text text-anchor="middle" x="354.43" y="-490.62" font-family="Helvetica,sans-Serif" font-size="10.00" fill="#000000">requests</text>
</g>
<!-- shapely -->
<g id="node5" class="node">
<title>shapely</title><style>.edge>path:hover{stroke-width:8}</style>
<ellipse fill="#3b3bce" stroke="black" cx="106.43" cy="-406.92" rx="29.37" ry="18"/>
<text text-anchor="middle" x="106.43" y="-404.42" font-family="Helvetica,sans-Serif" font-size="10.00" fill="#ffffff">shapely</text>
</g>
<!-- shapely_geometry -->
<g id="node6" class="node">
<title>shapely_geometry</title><style>.edge>path:hover{stroke-width:8}</style>
<ellipse fill="#4040c0" stroke="black" cx="194.43" cy="-406.92" rx="40.11" ry="21.43"/>
<text text-anchor="middle" x="194.43" y="-409.92" font-family="Helvetica,sans-Serif" font-size="10.00" fill="#ffffff">shapely.</text>
<text text-anchor="middle" x="194.43" y="-398.92" font-family="Helvetica,sans-Serif" font-size="10.00" fill="#ffffff">geometry</text>
</g>
<!-- shapely_geometry_Polygon -->
<g id="node7" class="node">
<title>shapely_geometry_Polygon</title><style>.edge>path:hover{stroke-width:8}</style>
<ellipse fill="#4949ac" stroke="black" cx="262.43" cy="-493.12" rx="41.94" ry="28.98"/>
<text text-anchor="middle" x="262.43" y="-501.62" font-family="Helvetica,sans-Serif" font-size="10.00" fill="#ffffff">shapely.</text>
<text text-anchor="middle" x="262.43" y="-490.62" font-family="Helvetica,sans-Serif" font-size="10.00" fill="#ffffff">geometry.</text>
<text text-anchor="middle" x="262.43" y="-479.62" font-family="Helvetica,sans-Serif" font-size="10.00" fill="#ffffff">Polygon</text>
</g>
<!-- wahoomc___main__ -->
<g id="node8" class="node">
<title>wahoomc___main__</title><style>.edge>path:hover{stroke-width:8}</style>
<ellipse fill="#ac49ac" stroke="black" cx="607.43" cy="-21.21" rx="43.68" ry="21.43"/>
<text text-anchor="middle" x="607.43" y="-24.21" font-family="Helvetica,sans-Serif" font-size="10.00" fill="#ffffff">wahoomc.</text>
<text text-anchor="middle" x="607.43" y="-13.21" font-family="Helvetica,sans-Serif" font-size="10.00" fill="#ffffff">__main__</text>
</g>
<!-- wahoomc_main -->
<g id="node15" class="node">
<title>wahoomc_main</title><style>.edge>path:hover{stroke-width:8}</style>
<ellipse fill="#a838a8" stroke="black" cx="607.43" cy="-96.43" rx="48.72" ry="18"/>
<text text-anchor="middle" x="607.43" y="-93.93" font-family="Helvetica,sans-Serif" font-size="10.00" fill="#ffffff">wahoomc.main</text>
</g>
<!-- wahoomc___main__&#45;&gt;wahoomc_main -->
<g id="edge23" class="edge">
<title>wahoomc___main__&#45;&gt;wahoomc_main</title><style>.edge>path:hover{stroke-width:8}</style>
<path fill="none" stroke="black" d="M607.43,-43C607.43,-50.41 607.43,-58.89 607.43,-66.84"/>
<polygon fill="#ac49ac" stroke="black" points="603.93,-66.78 607.43,-76.78 610.93,-66.78 603.93,-66.78"/>
</g>
<!-- wahoomc_constants -->
<g id="node9" class="node">
<title>wahoomc_constants</title><style>.edge>path:hover{stroke-width:8}</style>
<ellipse fill="#f910f9" stroke="black" cx="472.43" cy="-406.92" rx="43.68" ry="21.43"/>
<text text-anchor="middle" x="472.43" y="-409.92" font-family="Helvetica,sans-Serif" font-size="10.00" fill="#ffffff">wahoomc.</text>
<text text-anchor="middle" x="472.43" y="-398.92" font-family="Helvetica,sans-Serif" font-size="10.00" fill="#ffffff">constants</text>
</g>
<!-- wahoomc_constants_functions -->
<g id="node10" class="node">
<title>wahoomc_constants_functions</title><style>.edge>path:hover{stroke-width:8}</style>
<ellipse fill="#d024d0" stroke="black" cx="518.43" cy="-328.49" rx="73.58" ry="21.43"/>
<text text-anchor="middle" x="518.43" y="-331.49" font-family="Helvetica,sans-Serif" font-size="10.00" fill="#ffffff">wahoomc.</text>
<text text-anchor="middle" x="518.43" y="-320.49" font-family="Helvetica,sans-Serif" font-size="10.00" fill="#ffffff">constants_functions</text>
</g>
<!-- wahoomc_constants_functions&#45;&gt;wahoomc_constants -->
<g id="edge8" class="edge">
<title>wahoomc_constants_functions&#45;&gt;wahoomc_constants</title><style>.edge>path:hover{stroke-width:8}</style>
<path fill="none" stroke="black" d="M506.11,-349.97C501.29,-357.98 495.66,-367.33 490.41,-376.06"/>
<polygon fill="#d024d0" stroke="black" points="487.41,-374.24 485.26,-384.61 493.41,-377.85 487.41,-374.24"/>
</g>
<!-- wahoomc_downloader -->
<g id="node11" class="node">
<title>wahoomc_downloader</title><style>.edge>path:hover{stroke-width:8}</style>
<ellipse fill="#a838a8" stroke="black" cx="341.43" cy="-250.07" rx="46.84" ry="21.43"/>
<text text-anchor="middle" x="341.43" y="-253.07" font-family="Helvetica,sans-Serif" font-size="10.00" fill="#ffffff">wahoomc.</text>
<text text-anchor="middle" x="341.43" y="-242.07" font-family="Helvetica,sans-Serif" font-size="10.00" fill="#ffffff">downloader</text>
</g>
<!-- wahoomc_downloader&#45;&gt;wahoomc_constants -->
<g id="edge9" class="edge">
<title>wahoomc_downloader&#45;&gt;wahoomc_constants</title><style>.edge>path:hover{stroke-width:8}</style>
<path fill="none" stroke="black" d="M364.48,-269.21C381.11,-283.43 402.92,-304.6 416.43,-327.49"/>
<path fill="none" stroke="black" d="M416.43,-329.49C426.31,-346.23 438.99,-363.79 449.79,-377.85"/>
<polygon fill="#a838a8" stroke="black" points="446.73,-379.62 455.64,-385.35 452.25,-375.32 446.73,-379.62"/>
</g>
<!-- wahoomc_downloader&#45;&gt;wahoomc_constants_functions -->
<g id="edge14" class="edge">
<title>wahoomc_downloader&#45;&gt;wahoomc_constants_functions</title><style>.edge>path:hover{stroke-width:8}</style>
<path fill="none" stroke="black" d="M374.73,-265.44C400.97,-276.77 438.01,-292.76 467.9,-305.67"/>
<polygon fill="#a838a8" stroke="black" points="466.2,-308.75 476.76,-309.5 468.97,-302.32 466.2,-308.75"/>
</g>
<!-- wahoomc_file_directory_functions -->
<g id="node12" class="node">
<title>wahoomc_file_directory_functions</title><style>.edge>path:hover{stroke-width:8}</style>
<ellipse fill="#d926d9" stroke="black" cx="305.43" cy="-328.49" rx="82.96" ry="21.43"/>
<text text-anchor="middle" x="305.43" y="-331.49" font-family="Helvetica,sans-Serif" font-size="10.00" fill="#ffffff">wahoomc.</text>
<text text-anchor="middle" x="305.43" y="-320.49" font-family="Helvetica,sans-Serif" font-size="10.00" fill="#ffffff">file_directory_functions</text>
</g>
<!-- wahoomc_downloader&#45;&gt;wahoomc_file_directory_functions -->
<g id="edge18" class="edge">
<title>wahoomc_downloader&#45;&gt;wahoomc_file_directory_functions</title><style>.edge>path:hover{stroke-width:8}</style>
<path fill="none" stroke="black" d="M331.97,-271.15C328.34,-278.86 324.11,-287.85 320.1,-296.36"/>
<polygon fill="#a838a8" stroke="black" points="316.94,-294.84 315.85,-305.38 323.28,-297.82 316.94,-294.84"/>
</g>
<!-- wahoomc_file_directory_functions&#45;&gt;requests -->
<g id="edge4" class="edge">
<title>wahoomc_file_directory_functions&#45;&gt;requests</title><style>.edge>path:hover{stroke-width:8}</style>
<path fill="none" stroke="black" d="M311.64,-350.09C320.35,-379.02 336.25,-431.76 346.02,-464.2"/>
<polygon fill="#d926d9" stroke="black" points="342.65,-465.13 348.88,-473.7 349.35,-463.11 342.65,-465.13"/>
</g>
<!-- wahoomc_geofabrik -->
<g id="node13" class="node">
<title>wahoomc_geofabrik</title><style>.edge>path:hover{stroke-width:8}</style>
<ellipse fill="#993399" stroke="black" cx="194.43" cy="-250.07" rx="43.68" ry="21.43"/>
<text text-anchor="middle" x="194.43" y="-253.07" font-family="Helvetica,sans-Serif" font-size="10.00" fill="#ffffff">wahoomc.</text>
<text text-anchor="middle" x="194.43" y="-242.07" font-family="Helvetica,sans-Serif" font-size="10.00" fill="#ffffff">geofabrik</text>
</g>
<!-- wahoomc_geofabrik&#45;&gt;geojson -->
<g id="edge2" class="edge">
<title>wahoomc_geofabrik&#45;&gt;geojson</title><style>.edge>path:hover{stroke-width:8}</style>
<path fill="none" stroke="black" d="M193.13,-271.9C192.48,-287.31 192.24,-308.78 194.43,-327.49"/>
<path fill="none" stroke="black" d="M194.43,-329.49C201.56,-390.4 123.68,-359.09 68.43,-385.71 66.14,-386.81 63.79,-387.97 61.43,-389.15"/>
<polygon fill="#993399" stroke="black" points="59.86,-386.02 52.53,-393.67 63.03,-392.26 59.86,-386.02"/>
</g>
<!-- wahoomc_geofabrik&#45;&gt;shapely -->
<g id="edge5" class="edge">
<title>wahoomc_geofabrik&#45;&gt;shapely</title><style>.edge>path:hover{stroke-width:8}</style>
<path fill="none" stroke="black" d="M194.43,-329.49C196.28,-345.26 162.78,-370.42 136.59,-387.53"/>
<polygon fill="#993399" stroke="black" points="134.82,-384.51 128.27,-392.84 138.58,-390.41 134.82,-384.51"/>
</g>
<!-- wahoomc_geofabrik&#45;&gt;shapely_geometry -->
<g id="edge6" class="edge">
<title>wahoomc_geofabrik&#45;&gt;shapely_geometry</title><style>.edge>path:hover{stroke-width:8}</style>
<path fill="none" stroke="black" d="M194.43,-329.49C196.13,-343.97 196.37,-360.09 196.09,-373.78"/>
<polygon fill="#993399" stroke="black" points="192.6,-373.47 195.78,-383.57 199.59,-373.68 192.6,-373.47"/>
</g>
<!-- wahoomc_geofabrik&#45;&gt;shapely_geometry_Polygon -->
<g id="edge7" class="edge">
<title>wahoomc_geofabrik&#45;&gt;shapely_geometry_Polygon</title><style>.edge>path:hover{stroke-width:8}</style>
<path fill="none" stroke="black" d="M194.43,-329.49C198.28,-362.41 229.11,-355.82 243.43,-385.71 253.38,-406.46 258.15,-431.75 260.43,-452.46"/>
<polygon fill="#993399" stroke="black" points="256.93,-452.61 261.34,-462.24 263.9,-451.96 256.93,-452.61"/>
</g>
<!-- wahoomc_geofabrik&#45;&gt;wahoomc_constants -->
<g id="edge10" class="edge">
<title>wahoomc_geofabrik&#45;&gt;wahoomc_constants</title><style>.edge>path:hover{stroke-width:8}</style>
<path fill="none" stroke="black" d="M194.43,-329.49C199.73,-374.8 338.44,-394.34 417.88,-401.83"/>
<polygon fill="#993399" stroke="black" points="417.36,-405.3 427.64,-402.71 417.99,-398.32 417.36,-405.3"/>
</g>
<!-- wahoomc_input -->
<g id="node14" class="node">
<title>wahoomc_input</title><style>.edge>path:hover{stroke-width:8}</style>
<ellipse fill="#b83db8" stroke="black" cx="607.43" cy="-171.64" rx="48.72" ry="18"/>
<text text-anchor="middle" x="607.43" y="-169.14" font-family="Helvetica,sans-Serif" font-size="10.00" fill="#ffffff">wahoomc.input</text>
</g>
<!-- wahoomc_input&#45;&gt;wahoomc_constants -->
<g id="edge11" class="edge">
<title>wahoomc_input&#45;&gt;wahoomc_constants</title><style>.edge>path:hover{stroke-width:8}</style>
<path fill="none" stroke="black" d="M612.38,-189.82C621.05,-223.72 635.06,-300.22 601.43,-349.71 584.12,-375.19 552.55,-389.21 524.98,-396.87"/>
<polygon fill="#b83db8" stroke="black" points="524.16,-393.47 515.33,-399.32 525.88,-400.25 524.16,-393.47"/>
</g>
<!-- wahoomc_main&#45;&gt;wahoomc_input -->
<g id="edge22" class="edge">
<title>wahoomc_main&#45;&gt;wahoomc_input</title><style>.edge>path:hover{stroke-width:8}</style>
<path fill="none" stroke="black" d="M607.43,-114.78C607.43,-122.83 607.43,-132.63 607.43,-141.75"/>
<polygon fill="#a838a8" stroke="black" points="603.93,-141.65 607.43,-151.65 610.93,-141.65 603.93,-141.65"/>
</g>
<!-- wahoomc_osm_maps_functions -->
<g id="node16" class="node">
<title>wahoomc_osm_maps_functions</title><style>.edge>path:hover{stroke-width:8}</style>
<ellipse fill="#993399" stroke="black" cx="341.43" cy="-171.64" rx="77.56" ry="21.43"/>
<text text-anchor="middle" x="341.43" y="-174.64" font-family="Helvetica,sans-Serif" font-size="10.00" fill="#ffffff">wahoomc.</text>
<text text-anchor="middle" x="341.43" y="-163.64" font-family="Helvetica,sans-Serif" font-size="10.00" fill="#ffffff">osm_maps_functions</text>
</g>
<!-- wahoomc_main&#45;&gt;wahoomc_osm_maps_functions -->
<g id="edge24" class="edge">
<title>wahoomc_main&#45;&gt;wahoomc_osm_maps_functions</title><style>.edge>path:hover{stroke-width:8}</style>
<path fill="none" stroke="black" d="M569.04,-107.99C526.41,-119.73 456.91,-138.86 405.91,-152.89"/>
<polygon fill="#a838a8" stroke="black" points="405.17,-149.47 396.46,-155.5 407.03,-156.22 405.17,-149.47"/>
</g>
<!-- wahoomc_setup_functions -->
<g id="node17" class="node">
<title>wahoomc_setup_functions</title><style>.edge>path:hover{stroke-width:8}</style>
<ellipse fill="#a135a1" stroke="black" cx="696.43" cy="-250.07" rx="60.62" ry="21.43"/>
<text text-anchor="middle" x="696.43" y="-253.07" font-family="Helvetica,sans-Serif" font-size="10.00" fill="#ffffff">wahoomc.</text>
<text text-anchor="middle" x="696.43" y="-242.07" font-family="Helvetica,sans-Serif" font-size="10.00" fill="#ffffff">setup_functions</text>
</g>
<!-- wahoomc_main&#45;&gt;wahoomc_setup_functions -->
<g id="edge25" class="edge">
<title>wahoomc_main&#45;&gt;wahoomc_setup_functions</title><style>.edge>path:hover{stroke-width:8}</style>
<path fill="none" stroke="black" d="M629.39,-112.88C641.55,-122.45 656.05,-135.7 665.43,-150.43 678.42,-170.8 686.32,-197.01 690.89,-217.3"/>
<polygon fill="#a838a8" stroke="black" points="687.44,-217.9 692.9,-226.98 694.3,-216.48 687.44,-217.9"/>
</g>
<!-- wahoomc_osm_maps_functions&#45;&gt;wahoomc_constants -->
<g id="edge12" class="edge">
<title>wahoomc_osm_maps_functions&#45;&gt;wahoomc_constants</title><style>.edge>path:hover{stroke-width:8}</style>
<path fill="none" stroke="black" d="M363.39,-192.61C379.06,-207.42 400.16,-228.52 416.43,-249.07"/>
<path fill="none" stroke="black" d="M416.43,-251.07C437.52,-277.69 399.17,-298.24 416.43,-327.49"/>
</g>
<!-- wahoomc_osm_maps_functions&#45;&gt;wahoomc_constants_functions -->
<g id="edge15" class="edge">
<title>wahoomc_osm_maps_functions&#45;&gt;wahoomc_constants_functions</title><style>.edge>path:hover{stroke-width:8}</style>
<path fill="none" stroke="black" d="M416.43,-251.07C432.73,-271.64 455.81,-289.55 475.9,-302.85"/>
<polygon fill="#993399" stroke="black" points="473.9,-305.73 484.21,-308.19 477.69,-299.84 473.9,-305.73"/>
</g>
<!-- wahoomc_osm_maps_functions&#45;&gt;wahoomc_downloader -->
<g id="edge17" class="edge">
<title>wahoomc_osm_maps_functions&#45;&gt;wahoomc_downloader</title><style>.edge>path:hover{stroke-width:8}</style>
<path fill="none" stroke="black" d="M341.43,-193.52C341.43,-200.68 341.43,-208.88 341.43,-216.73"/>
<polygon fill="#993399" stroke="black" points="337.93,-216.69 341.43,-226.69 344.93,-216.69 337.93,-216.69"/>
</g>
<!-- wahoomc_osm_maps_functions&#45;&gt;wahoomc_file_directory_functions -->
<g id="edge19" class="edge">
<title>wahoomc_osm_maps_functions&#45;&gt;wahoomc_file_directory_functions</title><style>.edge>path:hover{stroke-width:8}</style>
<path fill="none" stroke="black" d="M314.39,-191.94C303.19,-201.6 291.43,-214.34 285.43,-228.85 276.48,-250.52 282.41,-276.57 290.07,-296.45"/>
<polygon fill="#993399" stroke="black" points="286.73,-297.54 293.84,-305.4 293.19,-294.83 286.73,-297.54"/>
</g>
<!-- wahoomc_osm_maps_functions&#45;&gt;wahoomc_geofabrik -->
<g id="edge21" class="edge">
<title>wahoomc_osm_maps_functions&#45;&gt;wahoomc_geofabrik</title><style>.edge>path:hover{stroke-width:8}</style>
<path fill="none" stroke="black" d="M305.85,-191.14C284.14,-202.43 256.34,-216.88 233.95,-228.52"/>
<polygon fill="#993399" stroke="black" points="232.36,-225.4 225.1,-233.12 235.59,-231.61 232.36,-225.4"/>
</g>
<!-- wahoomc_setup_functions&#45;&gt;pkg_resources -->
<g id="edge3" class="edge">
<title>wahoomc_setup_functions&#45;&gt;pkg_resources</title><style>.edge>path:hover{stroke-width:8}</style>
<path fill="none" stroke="black" d="M683.43,-329.49C674.73,-343.75 674.59,-362.47 676.69,-377.82"/>
<polygon fill="#a135a1" stroke="black" points="673.18,-378.04 678.37,-387.27 680.07,-376.81 673.18,-378.04"/>
</g>
<!-- wahoomc_setup_functions&#45;&gt;wahoomc_constants -->
<g id="edge13" class="edge">
<title>wahoomc_setup_functions&#45;&gt;wahoomc_constants</title><style>.edge>path:hover{stroke-width:8}</style>
<path fill="none" stroke="black" d="M696.96,-271.98C696.46,-288.22 693.67,-310.72 683.43,-327.49"/>
<path fill="none" stroke="black" d="M683.43,-329.49C651.36,-382.06 578.47,-398.85 527.38,-404"/>
<polygon fill="#a135a1" stroke="black" points="527.35,-400.49 517.7,-404.85 527.97,-407.46 527.35,-400.49"/>
</g>
<!-- wahoomc_setup_functions&#45;&gt;wahoomc_constants_functions -->
<g id="edge16" class="edge">
<title>wahoomc_setup_functions&#45;&gt;wahoomc_constants_functions</title><style>.edge>path:hover{stroke-width:8}</style>
<path fill="none" stroke="black" d="M658.68,-267.27C632.62,-278.46 597.67,-293.47 569.17,-305.71"/>
<polygon fill="#a135a1" stroke="black" points="567.8,-302.49 559.99,-309.65 570.56,-308.92 567.8,-302.49"/>
</g>
<!-- wahoomc_setup_functions&#45;&gt;wahoomc_file_directory_functions -->
<g id="edge20" class="edge">
<title>wahoomc_setup_functions&#45;&gt;wahoomc_file_directory_functions</title><style>.edge>path:hover{stroke-width:8}</style>
<path fill="none" stroke="black" d="M643.54,-260.91C584.64,-271.93 486.64,-290.46 402.43,-307.28 395.07,-308.75 387.39,-310.31 379.72,-311.88"/>
<polygon fill="#a135a1" stroke="black" points="379.11,-308.43 370.02,-313.88 380.52,-315.29 379.11,-308.43"/>
</g>
</g>
</svg>
