<?xml version="1.0" encoding="UTF-8" standalone="no"?>
<!DOCTYPE svg PUBLIC "-//W3C//DTD SVG 1.1//EN"
 "http://www.w3.org/Graphics/SVG/1.1/DTD/svg11.dtd">
<!-- Generated by graphviz version 7.0.0 (20221023.0053)
 -->
<!-- Title: G Pages: 1 -->
<svg width="803pt" height="624pt"
 viewBox="0.00 0.00 803.40 624.10" xmlns="http://www.w3.org/2000/svg" xmlns:xlink="http://www.w3.org/1999/xlink">
<g id="graph0" class="graph" transform="scale(1 1) rotate(0) translate(4 620.1)">
<title>G</title><style>.edge>path:hover{stroke-width:8}</style>
<polygon fill="white" stroke="none" points="-4,4 -4,-620.1 799.4,-620.1 799.4,4 -4,4"/>
<!-- __main__ -->
<g id="node1" class="node">
<title>__main__</title><style>.edge>path:hover{stroke-width:8}</style>
<ellipse fill="#6b2e2e" stroke="black" cx="46.09" cy="-500.9" rx="34.96" ry="18"/>
<text text-anchor="middle" x="46.09" y="-498.4" font-family="Helvetica,sans-Serif" font-size="10.00" fill="#ffffff">__main__</text>
</g>
<!-- geojson -->
<g id="node2" class="node">
<title>geojson</title><style>.edge>path:hover{stroke-width:8}</style>
<ellipse fill="#bfc040" stroke="black" cx="590.09" cy="-500.9" rx="29.37" ry="18"/>
<text text-anchor="middle" x="590.09" y="-498.4" font-family="Helvetica,sans-Serif" font-size="10.00" fill="#000000">geojson</text>
</g>
<!-- pkg_resources -->
<g id="node3" class="node">
<title>pkg_resources</title><style>.edge>path:hover{stroke-width:8}</style>
<ellipse fill="#3db83d" stroke="black" cx="47.09" cy="-422.48" rx="47.19" ry="18"/>
<text text-anchor="middle" x="47.09" y="-419.98" font-family="Helvetica,sans-Serif" font-size="10.00" fill="#000000">pkg_resources</text>
</g>
<!-- pkg_resources&#45;&gt;__main__ -->
<g id="edge1" class="edge">
<title>pkg_resources&#45;&gt;__main__</title><style>.edge>path:hover{stroke-width:8}</style>
<path fill="none" stroke="black" d="M46.87,-440.82C46.75,-449.81 46.6,-461.02 46.47,-471.25"/>
<polygon fill="#3db83d" stroke="black" points="42.97,-471.07 46.34,-481.11 49.97,-471.16 42.97,-471.07"/>
</g>
<!-- requests -->
<g id="node4" class="node">
<title>requests</title><style>.edge>path:hover{stroke-width:8}</style>
<ellipse fill="#40bfc0" stroke="black" cx="131.09" cy="-500.9" rx="31.58" ry="18"/>
<text text-anchor="middle" x="131.09" y="-498.4" font-family="Helvetica,sans-Serif" font-size="10.00" fill="#000000">requests</text>
</g>
<!-- shapely -->
<g id="node5" class="node">
<title>shapely</title><style>.edge>path:hover{stroke-width:8}</style>
<ellipse fill="#3b3bce" stroke="black" cx="667.09" cy="-500.9" rx="29.37" ry="18"/>
<text text-anchor="middle" x="667.09" y="-498.4" font-family="Helvetica,sans-Serif" font-size="10.00" fill="#ffffff">shapely</text>
</g>
<!-- shapely_geometry -->
<g id="node6" class="node">
<title>shapely_geometry</title><style>.edge>path:hover{stroke-width:8}</style>
<ellipse fill="#4040c0" stroke="black" cx="755.09" cy="-500.9" rx="40.11" ry="21.43"/>
<text text-anchor="middle" x="755.09" y="-503.9" font-family="Helvetica,sans-Serif" font-size="10.00" fill="#ffffff">shapely.</text>
<text text-anchor="middle" x="755.09" y="-492.9" font-family="Helvetica,sans-Serif" font-size="10.00" fill="#ffffff">geometry</text>
</g>
<!-- shapely_geometry_Polygon -->
<g id="node7" class="node">
<title>shapely_geometry_Polygon</title><style>.edge>path:hover{stroke-width:8}</style>
<ellipse fill="#4949ac" stroke="black" cx="533.09" cy="-587.11" rx="41.94" ry="28.98"/>
<text text-anchor="middle" x="533.09" y="-595.61" font-family="Helvetica,sans-Serif" font-size="10.00" fill="#ffffff">shapely.</text>
<text text-anchor="middle" x="533.09" y="-584.61" font-family="Helvetica,sans-Serif" font-size="10.00" fill="#ffffff">geometry.</text>
<text text-anchor="middle" x="533.09" y="-573.61" font-family="Helvetica,sans-Serif" font-size="10.00" fill="#ffffff">Polygon</text>
</g>
<!-- wahoomc___main__ -->
<g id="node8" class="node">
<title>wahoomc___main__</title><style>.edge>path:hover{stroke-width:8}</style>
<ellipse fill="#ac49ac" stroke="black" cx="319.09" cy="-115.2" rx="43.68" ry="21.43"/>
<text text-anchor="middle" x="319.09" y="-118.2" font-family="Helvetica,sans-Serif" font-size="10.00" fill="#ffffff">wahoomc.</text>
<text text-anchor="middle" x="319.09" y="-107.2" font-family="Helvetica,sans-Serif" font-size="10.00" fill="#ffffff">__main__</text>
</g>
<!-- wahoomc_main -->
<g id="node16" class="node">
<title>wahoomc_main</title><style>.edge>path:hover{stroke-width:8}</style>
<ellipse fill="#ac2bac" stroke="black" cx="355.09" cy="-190.41" rx="48.72" ry="18"/>
<text text-anchor="middle" x="355.09" y="-187.91" font-family="Helvetica,sans-Serif" font-size="10.00" fill="#ffffff">wahoomc.main</text>
</g>
<!-- wahoomc___main__&#45;&gt;wahoomc_main -->
<g id="edge26" class="edge">
<title>wahoomc___main__&#45;&gt;wahoomc_main</title><style>.edge>path:hover{stroke-width:8}</style>
<path fill="none" stroke="black" d="M328.93,-136.2C332.85,-144.18 337.43,-153.49 341.65,-162.08"/>
<polygon fill="#ac49ac" stroke="black" points="338.51,-163.62 346.06,-171.05 344.79,-160.53 338.51,-163.62"/>
</g>
<!-- wahoomc_constants -->
<g id="node9" class="node">
<title>wahoomc_constants</title><style>.edge>path:hover{stroke-width:8}</style>
<ellipse fill="#f910f9" stroke="black" cx="425.09" cy="-500.9" rx="43.68" ry="21.43"/>
<text text-anchor="middle" x="425.09" y="-503.9" font-family="Helvetica,sans-Serif" font-size="10.00" fill="#ffffff">wahoomc.</text>
<text text-anchor="middle" x="425.09" y="-492.9" font-family="Helvetica,sans-Serif" font-size="10.00" fill="#ffffff">constants</text>
</g>
<!-- wahoomc_constants_functions -->
<g id="node10" class="node">
<title>wahoomc_constants_functions</title><style>.edge>path:hover{stroke-width:8}</style>
<ellipse fill="#c823c8" stroke="black" cx="263.09" cy="-422.48" rx="73.58" ry="21.43"/>
<text text-anchor="middle" x="263.09" y="-425.48" font-family="Helvetica,sans-Serif" font-size="10.00" fill="#ffffff">wahoomc.</text>
<text text-anchor="middle" x="263.09" y="-414.48" font-family="Helvetica,sans-Serif" font-size="10.00" fill="#ffffff">constants_functions</text>
</g>
<!-- wahoomc_constants_functions&#45;&gt;wahoomc_constants -->
<g id="edge8" class="edge">
<title>wahoomc_constants_functions&#45;&gt;wahoomc_constants</title><style>.edge>path:hover{stroke-width:8}</style>
<path fill="none" stroke="black" d="M300.67,-441.2C325.64,-452.98 358.43,-468.45 384.08,-480.56"/>
<polygon fill="#c823c8" stroke="black" points="382.33,-483.6 392.87,-484.7 385.32,-477.27 382.33,-483.6"/>
</g>
<!-- wahoomc_file_directory_functions -->
<g id="node12" class="node">
<title>wahoomc_file_directory_functions</title><style>.edge>path:hover{stroke-width:8}</style>
<ellipse fill="#e722e7" stroke="black" cx="264.09" cy="-500.9" rx="82.96" ry="21.43"/>
<text text-anchor="middle" x="264.09" y="-503.9" font-family="Helvetica,sans-Serif" font-size="10.00" fill="#ffffff">wahoomc.</text>
<text text-anchor="middle" x="264.09" y="-492.9" font-family="Helvetica,sans-Serif" font-size="10.00" fill="#ffffff">file_directory_functions</text>
</g>
<!-- wahoomc_constants_functions&#45;&gt;wahoomc_file_directory_functions -->
<g id="edge20" class="edge">
<title>wahoomc_constants_functions&#45;&gt;wahoomc_file_directory_functions</title><style>.edge>path:hover{stroke-width:8}</style>
<path fill="none" stroke="black" d="M263.37,-444.36C263.46,-451.52 263.57,-459.71 263.67,-467.56"/>
<polygon fill="#c823c8" stroke="black" points="260.17,-467.58 263.8,-477.53 267.17,-467.48 260.17,-467.58"/>
</g>
<!-- wahoomc_downloader -->
<g id="node11" class="node">
<title>wahoomc_downloader</title><style>.edge>path:hover{stroke-width:8}</style>
<ellipse fill="#b620b6" stroke="black" cx="266.09" cy="-344.05" rx="46.84" ry="21.43"/>
<text text-anchor="middle" x="266.09" y="-347.05" font-family="Helvetica,sans-Serif" font-size="10.00" fill="#ffffff">wahoomc.</text>
<text text-anchor="middle" x="266.09" y="-336.05" font-family="Helvetica,sans-Serif" font-size="10.00" fill="#ffffff">downloader</text>
</g>
<!-- wahoomc_downloader&#45;&gt;requests -->
<g id="edge4" class="edge">
<title>wahoomc_downloader&#45;&gt;requests</title><style>.edge>path:hover{stroke-width:8}</style>
<path fill="none" stroke="black" d="M161.09,-423.48C156.85,-440.33 149.84,-458.46 143.67,-472.84"/>
<polygon fill="#b620b6" stroke="black" points="140.62,-471.07 139.78,-481.63 147.02,-473.9 140.62,-471.07"/>
<path fill="none" stroke="black" d="M229.05,-357.57C202.16,-369.19 169.14,-389.55 161.09,-421.48"/>
</g>
<!-- wahoomc_downloader&#45;&gt;wahoomc_constants -->
<g id="edge9" class="edge">
<title>wahoomc_downloader&#45;&gt;wahoomc_constants</title><style>.edge>path:hover{stroke-width:8}</style>
<path fill="none" stroke="black" d="M293.84,-361.76C309.94,-372.12 330.13,-386.27 346.09,-401.26 368.6,-422.4 390.23,-450.1 405.15,-470.76"/>
<polygon fill="#b620b6" stroke="black" points="402.19,-472.64 410.84,-478.77 407.9,-468.59 402.19,-472.64"/>
</g>
<!-- wahoomc_downloader&#45;&gt;wahoomc_constants_functions -->
<g id="edge14" class="edge">
<title>wahoomc_downloader&#45;&gt;wahoomc_constants_functions</title><style>.edge>path:hover{stroke-width:8}</style>
<path fill="none" stroke="black" d="M265.27,-365.93C264.99,-373.09 264.67,-381.29 264.36,-389.14"/>
<polygon fill="#b620b6" stroke="black" points="260.87,-388.97 263.97,-399.1 267.86,-389.25 260.87,-388.97"/>
</g>
<!-- wahoomc_downloader&#45;&gt;wahoomc_file_directory_functions -->
<g id="edge21" class="edge">
<title>wahoomc_downloader&#45;&gt;wahoomc_file_directory_functions</title><style>.edge>path:hover{stroke-width:8}</style>
<path fill="none" stroke="black" d="M161.09,-423.48C154.69,-448.9 175.97,-467.11 200.83,-479.36"/>
<polygon fill="#b620b6" stroke="black" points="199.31,-482.52 209.87,-483.46 202.21,-476.14 199.31,-482.52"/>
</g>
<!-- wahoomc_geofabrik -->
<g id="node13" class="node">
<title>wahoomc_geofabrik</title><style>.edge>path:hover{stroke-width:8}</style>
<ellipse fill="#993399" stroke="black" cx="625.09" cy="-344.05" rx="43.68" ry="21.43"/>
<text text-anchor="middle" x="625.09" y="-347.05" font-family="Helvetica,sans-Serif" font-size="10.00" fill="#ffffff">wahoomc.</text>
<text text-anchor="middle" x="625.09" y="-336.05" font-family="Helvetica,sans-Serif" font-size="10.00" fill="#ffffff">geofabrik</text>
</g>
<!-- wahoomc_geofabrik&#45;&gt;geojson -->
<g id="edge2" class="edge">
<title>wahoomc_geofabrik&#45;&gt;geojson</title><style>.edge>path:hover{stroke-width:8}</style>
<path fill="none" stroke="black" d="M590.09,-423.48C587.17,-439.17 586.99,-456.99 587.63,-471.48"/>
<polygon fill="#993399" stroke="black" points="584.12,-471.46 588.22,-481.23 591.11,-471.03 584.12,-471.46"/>
</g>
<!-- wahoomc_geofabrik&#45;&gt;shapely -->
<g id="edge5" class="edge">
<title>wahoomc_geofabrik&#45;&gt;shapely</title><style>.edge>path:hover{stroke-width:8}</style>
<path fill="none" stroke="black" d="M590.09,-423.48C587.42,-437.8 616.09,-462.71 639.2,-480.19"/>
<polygon fill="#993399" stroke="black" points="637,-482.92 647.13,-486.05 641.16,-477.29 637,-482.92"/>
</g>
<!-- wahoomc_geofabrik&#45;&gt;shapely_geometry -->
<g id="edge6" class="edge">
<title>wahoomc_geofabrik&#45;&gt;shapely_geometry</title><style>.edge>path:hover{stroke-width:8}</style>
<path fill="none" stroke="black" d="M590.09,-423.48C588.85,-430.16 664.07,-462.49 713.36,-482.9"/>
<polygon fill="#993399" stroke="black" points="711.77,-486.03 722.35,-486.61 714.44,-479.56 711.77,-486.03"/>
</g>
<!-- wahoomc_geofabrik&#45;&gt;shapely_geometry_Polygon -->
<g id="edge7" class="edge">
<title>wahoomc_geofabrik&#45;&gt;shapely_geometry_Polygon</title><style>.edge>path:hover{stroke-width:8}</style>
<path fill="none" stroke="black" d="M590.09,-423.48C584.56,-453.12 563.43,-451.75 552.09,-479.69 543.5,-500.87 538.78,-525.98 536.2,-546.48"/>
<polygon fill="#993399" stroke="black" points="532.75,-545.82 535.11,-556.15 539.71,-546.61 532.75,-545.82"/>
</g>
<!-- wahoomc_geofabrik&#45;&gt;wahoomc_constants -->
<g id="edge10" class="edge">
<title>wahoomc_geofabrik&#45;&gt;wahoomc_constants</title><style>.edge>path:hover{stroke-width:8}</style>
<path fill="none" stroke="black" d="M612.71,-364.9C604.25,-379.82 593.89,-401.1 590.09,-421.48"/>
<path fill="none" stroke="black" d="M590.09,-423.48C585.42,-448.54 520.94,-472.41 473.99,-486.6"/>
<polygon fill="#993399" stroke="black" points="473.13,-483.21 464.53,-489.4 475.11,-489.92 473.13,-483.21"/>
</g>
<!-- wahoomc_init___main__ -->
<g id="node14" class="node">
<title>wahoomc_init___main__</title><style>.edge>path:hover{stroke-width:8}</style>
<ellipse fill="#ac49ac" stroke="black" cx="391.09" cy="-28.99" rx="43.68" ry="28.98"/>
<text text-anchor="middle" x="391.09" y="-37.49" font-family="Helvetica,sans-Serif" font-size="10.00" fill="#ffffff">wahoomc.</text>
<text text-anchor="middle" x="391.09" y="-26.49" font-family="Helvetica,sans-Serif" font-size="10.00" fill="#ffffff">init.</text>
<text text-anchor="middle" x="391.09" y="-15.49" font-family="Helvetica,sans-Serif" font-size="10.00" fill="#ffffff">__main__</text>
</g>
<!-- wahoomc_init___main__&#45;&gt;wahoomc_main -->
<g id="edge27" class="edge">
<title>wahoomc_init___main__&#45;&gt;wahoomc_main</title><style>.edge>path:hover{stroke-width:8}</style>
<path fill="none" stroke="black" d="M387.11,-58.22C383.81,-79.79 378.61,-110.18 372.09,-136.41 370.03,-144.7 367.37,-153.58 364.77,-161.65"/>
<polygon fill="#ac49ac" stroke="black" points="361.51,-160.36 361.67,-170.95 368.15,-162.57 361.51,-160.36"/>
</g>
<!-- wahoomc_input -->
<g id="node15" class="node">
<title>wahoomc_input</title><style>.edge>path:hover{stroke-width:8}</style>
<ellipse fill="#b83db8" stroke="black" cx="514.09" cy="-344.05" rx="48.72" ry="18"/>
<text text-anchor="middle" x="514.09" y="-341.55" font-family="Helvetica,sans-Serif" font-size="10.00" fill="#ffffff">wahoomc.input</text>
</g>
<!-- wahoomc_input&#45;&gt;wahoomc_constants -->
<g id="edge11" class="edge">
<title>wahoomc_input&#45;&gt;wahoomc_constants</title><style>.edge>path:hover{stroke-width:8}</style>
<path fill="none" stroke="black" d="M488.75,-359.79C469.41,-373.01 445.39,-394.48 441.09,-421.48"/>
</g>
<!-- wahoomc_main&#45;&gt;wahoomc_downloader -->
<g id="edge17" class="edge">
<title>wahoomc_main&#45;&gt;wahoomc_downloader</title><style>.edge>path:hover{stroke-width:8}</style>
<path fill="none" stroke="black" d="M344.11,-207.95C337.31,-218.32 328.51,-232.03 321.09,-244.41 307.52,-267.08 292.99,-293.22 282.28,-312.89"/>
<polygon fill="#ac2bac" stroke="black" points="279.31,-311.03 277.62,-321.49 285.46,-314.36 279.31,-311.03"/>
</g>
<!-- wahoomc_main&#45;&gt;wahoomc_input -->
<g id="edge25" class="edge">
<title>wahoomc_main&#45;&gt;wahoomc_input</title><style>.edge>path:hover{stroke-width:8}</style>
<path fill="none" stroke="black" d="M400.85,-197.05C431.99,-203.33 471.66,-216.57 495.09,-244.41 511.31,-263.68 515.28,-292.61 515.65,-314.16"/>
<polygon fill="#ac2bac" stroke="black" points="512.16,-314.02 515.55,-324.06 519.16,-314.09 512.16,-314.02"/>
</g>
<!-- wahoomc_osm_maps_functions -->
<g id="node17" class="node">
<title>wahoomc_osm_maps_functions</title><style>.edge>path:hover{stroke-width:8}</style>
<ellipse fill="#993399" stroke="black" cx="408.09" cy="-265.62" rx="77.56" ry="21.43"/>
<text text-anchor="middle" x="408.09" y="-268.62" font-family="Helvetica,sans-Serif" font-size="10.00" fill="#ffffff">wahoomc.</text>
<text text-anchor="middle" x="408.09" y="-257.62" font-family="Helvetica,sans-Serif" font-size="10.00" fill="#ffffff">osm_maps_functions</text>
</g>
<!-- wahoomc_main&#45;&gt;wahoomc_osm_maps_functions -->
<g id="edge28" class="edge">
<title>wahoomc_main&#45;&gt;wahoomc_osm_maps_functions</title><style>.edge>path:hover{stroke-width:8}</style>
<path fill="none" stroke="black" d="M367.12,-208.02C372.88,-215.98 379.95,-225.75 386.59,-234.92"/>
<polygon fill="#ac2bac" stroke="black" points="383.69,-236.88 392.39,-242.93 389.36,-232.78 383.69,-236.88"/>
</g>
<!-- wahoomc_setup_functions -->
<g id="node18" class="node">
<title>wahoomc_setup_functions</title><style>.edge>path:hover{stroke-width:8}</style>
<ellipse fill="#993399" stroke="black" cx="213.09" cy="-265.62" rx="60.62" ry="21.43"/>
<text text-anchor="middle" x="213.09" y="-268.62" font-family="Helvetica,sans-Serif" font-size="10.00" fill="#ffffff">wahoomc.</text>
<text text-anchor="middle" x="213.09" y="-257.62" font-family="Helvetica,sans-Serif" font-size="10.00" fill="#ffffff">setup_functions</text>
</g>
<!-- wahoomc_main&#45;&gt;wahoomc_setup_functions -->
<g id="edge29" class="edge">
<title>wahoomc_main&#45;&gt;wahoomc_setup_functions</title><style>.edge>path:hover{stroke-width:8}</style>
<path fill="none" stroke="black" d="M327.71,-205.53C307.57,-215.91 279.76,-230.25 256.59,-242.2"/>
<polygon fill="#ac2bac" stroke="black" points="255.27,-238.94 247.99,-246.63 258.48,-245.16 255.27,-238.94"/>
</g>
<!-- wahoomc_osm_maps_functions&#45;&gt;wahoomc_constants -->
<g id="edge12" class="edge">
<title>wahoomc_osm_maps_functions&#45;&gt;wahoomc_constants</title><style>.edge>path:hover{stroke-width:8}</style>
<path fill="none" stroke="black" d="M437.09,-345.05C439.9,-378.95 446.44,-387.88 441.09,-421.48"/>
</g>
<!-- wahoomc_osm_maps_functions&#45;&gt;wahoomc_constants_functions -->
<g id="edge15" class="edge">
<title>wahoomc_osm_maps_functions&#45;&gt;wahoomc_constants_functions</title><style>.edge>path:hover{stroke-width:8}</style>
<path fill="none" stroke="black" d="M391.48,-286.75C374.53,-307.03 347.22,-339 322.09,-365.26 312.96,-374.81 302.63,-384.87 293.21,-393.81"/>
<polygon fill="#993399" stroke="black" points="290.86,-391.21 285.96,-400.61 295.65,-396.32 290.86,-391.21"/>
</g>
<!-- wahoomc_osm_maps_functions&#45;&gt;wahoomc_downloader -->
<g id="edge18" class="edge">
<title>wahoomc_osm_maps_functions&#45;&gt;wahoomc_downloader</title><style>.edge>path:hover{stroke-width:8}</style>
<path fill="none" stroke="black" d="M373.72,-285.12C353.26,-296.13 327.22,-310.15 305.88,-321.64"/>
<polygon fill="#993399" stroke="black" points="304.3,-318.51 297.16,-326.33 307.62,-324.67 304.3,-318.51"/>
</g>
<!-- wahoomc_osm_maps_functions&#45;&gt;wahoomc_file_directory_functions -->
<g id="edge22" class="edge">
<title>wahoomc_osm_maps_functions&#45;&gt;wahoomc_file_directory_functions</title><style>.edge>path:hover{stroke-width:8}</style>
<path fill="none" stroke="black" d="M437.09,-345.05C442.42,-409.45 373.24,-453.92 320.77,-478.16"/>
<polygon fill="#993399" stroke="black" points="319.61,-474.85 311.91,-482.12 322.47,-481.24 319.61,-474.85"/>
<path fill="none" stroke="black" d="M419.63,-287.28C427.04,-302.24 435.58,-323.24 437.09,-343.05"/>
</g>
<!-- wahoomc_osm_maps_functions&#45;&gt;wahoomc_geofabrik -->
<g id="edge24" class="edge">
<title>wahoomc_osm_maps_functions&#45;&gt;wahoomc_geofabrik</title><style>.edge>path:hover{stroke-width:8}</style>
<path fill="none" stroke="black" d="M456.32,-282.67C489.08,-293.69 533.32,-308.8 572.09,-322.84 574.95,-323.87 577.88,-324.95 580.83,-326.04"/>
<polygon fill="#993399" stroke="black" points="579.5,-329.28 590.1,-329.51 581.96,-322.72 579.5,-329.28"/>
</g>
<!-- wahoomc_setup_functions&#45;&gt;pkg_resources -->
<g id="edge3" class="edge">
<title>wahoomc_setup_functions&#45;&gt;pkg_resources</title><style>.edge>path:hover{stroke-width:8}</style>
<path fill="none" stroke="black" d="M178.11,-283.39C156.44,-296.17 131.24,-316.17 123.09,-343.05"/>
<path fill="none" stroke="black" d="M123.09,-345.05C116.23,-367.71 97.57,-386.65 80.47,-400"/>
<polygon fill="#993399" stroke="black" points="78.39,-397.18 72.42,-405.93 82.55,-402.81 78.39,-397.18"/>
</g>
<!-- wahoomc_setup_functions&#45;&gt;wahoomc_constants -->
<g id="edge13" class="edge">
<title>wahoomc_setup_functions&#45;&gt;wahoomc_constants</title><style>.edge>path:hover{stroke-width:8}</style>
<path fill="none" stroke="black" d="M251.11,-282.77C317.82,-312.36 448.27,-376.35 441.09,-421.48"/>
<path fill="none" stroke="black" d="M441.09,-423.48C439.77,-438.46 436.59,-454.81 433.41,-468.52"/>
<polygon fill="#993399" stroke="black" points="430.1,-467.33 431.14,-477.87 436.9,-468.98 430.1,-467.33"/>
</g>
<!-- wahoomc_setup_functions&#45;&gt;wahoomc_constants_functions -->
<g id="edge16" class="edge">
<title>wahoomc_setup_functions&#45;&gt;wahoomc_constants_functions</title><style>.edge>path:hover{stroke-width:8}</style>
<path fill="none" stroke="black" d="M123.09,-345.05C117.23,-364.39 163.56,-386.52 204.48,-401.97"/>
<polygon fill="#993399" stroke="black" points="203.26,-405.25 213.86,-405.42 205.68,-398.68 203.26,-405.25"/>
</g>
<!-- wahoomc_setup_functions&#45;&gt;wahoomc_downloader -->
<g id="edge19" class="edge">
<title>wahoomc_setup_functions&#45;&gt;wahoomc_downloader</title><style>.edge>path:hover{stroke-width:8}</style>
<path fill="none" stroke="black" d="M227.02,-286.7C232.74,-294.95 239.48,-304.67 245.73,-313.69"/>
<polygon fill="#993399" stroke="black" points="242.82,-315.64 251.4,-321.86 248.58,-311.65 242.82,-315.64"/>
</g>
<!-- wahoomc_setup_functions&#45;&gt;wahoomc_file_directory_functions -->
<g id="edge23" class="edge">
<title>wahoomc_setup_functions&#45;&gt;wahoomc_file_directory_functions</title><style>.edge>path:hover{stroke-width:8}</style>
<path fill="none" stroke="black" d="M123.09,-345.05C110.01,-388.23 118.69,-408.63 147.09,-443.69 160.26,-459.94 179.26,-471.8 198.13,-480.31"/>
<polygon fill="#993399" stroke="black" points="196.59,-483.46 207.16,-484.11 199.3,-477.01 196.59,-483.46"/>
</g>
</g>
</svg>
