<?xml version="1.0" encoding="UTF-8" standalone="no"?>
<!DOCTYPE svg PUBLIC "-//W3C//DTD SVG 1.1//EN"
 "http://www.w3.org/Graphics/SVG/1.1/DTD/svg11.dtd">
<!-- Generated by graphviz version 7.0.0 (20221023.0053)
 -->
<!-- Title: G Pages: 1 -->
<svg width="799pt" height="624pt"
 viewBox="0.00 0.00 799.45 624.10" xmlns="http://www.w3.org/2000/svg" xmlns:xlink="http://www.w3.org/1999/xlink">
<g id="graph0" class="graph" transform="scale(1 1) rotate(0) translate(4 620.1)">
<title>G</title><style>.edge>path:hover{stroke-width:8}</style>
<polygon fill="white" stroke="none" points="-4,4 -4,-620.1 795.45,-620.1 795.45,4 -4,4"/>
<!-- __main__ -->
<g id="node1" class="node">
<title>__main__</title><style>.edge>path:hover{stroke-width:8}</style>
<ellipse fill="#6b2e2e" stroke="black" cx="756.72" cy="-500.9" rx="34.96" ry="18"/>
<text text-anchor="middle" x="756.72" y="-498.4" font-family="Helvetica,sans-Serif" font-size="10.00" fill="#ffffff">__main__</text>
</g>
<!-- geojson -->
<g id="node2" class="node">
<title>geojson</title><style>.edge>path:hover{stroke-width:8}</style>
<ellipse fill="#bfc040" stroke="black" cx="98.72" cy="-500.9" rx="29.37" ry="18"/>
<text text-anchor="middle" x="98.72" y="-498.4" font-family="Helvetica,sans-Serif" font-size="10.00" fill="#000000">geojson</text>
</g>
<!-- pkg_resources -->
<g id="node3" class="node">
<title>pkg_resources</title><style>.edge>path:hover{stroke-width:8}</style>
<ellipse fill="#3db83d" stroke="black" cx="613.72" cy="-422.48" rx="47.19" ry="18"/>
<text text-anchor="middle" x="613.72" y="-419.98" font-family="Helvetica,sans-Serif" font-size="10.00" fill="#000000">pkg_resources</text>
</g>
<!-- pkg_resources&#45;&gt;__main__ -->
<g id="edge1" class="edge">
<title>pkg_resources&#45;&gt;__main__</title><style>.edge>path:hover{stroke-width:8}</style>
<path fill="none" stroke="black" d="M640.28,-437.67C663.71,-450.19 697.96,-468.5 723.25,-482.01"/>
<polygon fill="#3db83d" stroke="black" points="721.34,-484.96 731.81,-486.59 724.64,-478.79 721.34,-484.96"/>
</g>
<!-- requests -->
<g id="node4" class="node">
<title>requests</title><style>.edge>path:hover{stroke-width:8}</style>
<ellipse fill="#40bfc0" stroke="black" cx="671.72" cy="-500.9" rx="31.58" ry="18"/>
<text text-anchor="middle" x="671.72" y="-498.4" font-family="Helvetica,sans-Serif" font-size="10.00" fill="#000000">requests</text>
</g>
<!-- shapely -->
<g id="node5" class="node">
<title>shapely</title><style>.edge>path:hover{stroke-width:8}</style>
<ellipse fill="#3b3bce" stroke="black" cx="175.72" cy="-500.9" rx="29.37" ry="18"/>
<text text-anchor="middle" x="175.72" y="-498.4" font-family="Helvetica,sans-Serif" font-size="10.00" fill="#ffffff">shapely</text>
</g>
<!-- shapely_geometry -->
<g id="node6" class="node">
<title>shapely_geometry</title><style>.edge>path:hover{stroke-width:8}</style>
<ellipse fill="#4040c0" stroke="black" cx="263.72" cy="-500.9" rx="40.11" ry="21.43"/>
<text text-anchor="middle" x="263.72" y="-503.9" font-family="Helvetica,sans-Serif" font-size="10.00" fill="#ffffff">shapely.</text>
<text text-anchor="middle" x="263.72" y="-492.9" font-family="Helvetica,sans-Serif" font-size="10.00" fill="#ffffff">geometry</text>
</g>
<!-- shapely_geometry_Polygon -->
<g id="node7" class="node">
<title>shapely_geometry_Polygon</title><style>.edge>path:hover{stroke-width:8}</style>
<ellipse fill="#4949ac" stroke="black" cx="41.72" cy="-587.11" rx="41.94" ry="28.98"/>
<text text-anchor="middle" x="41.72" y="-595.61" font-family="Helvetica,sans-Serif" font-size="10.00" fill="#ffffff">shapely.</text>
<text text-anchor="middle" x="41.72" y="-584.61" font-family="Helvetica,sans-Serif" font-size="10.00" fill="#ffffff">geometry.</text>
<text text-anchor="middle" x="41.72" y="-573.61" font-family="Helvetica,sans-Serif" font-size="10.00" fill="#ffffff">Polygon</text>
</g>
<!-- wahoomc___main__ -->
<g id="node8" class="node">
<title>wahoomc___main__</title><style>.edge>path:hover{stroke-width:8}</style>
<ellipse fill="#ac49ac" stroke="black" cx="313.72" cy="-115.2" rx="43.68" ry="21.43"/>
<text text-anchor="middle" x="313.72" y="-118.2" font-family="Helvetica,sans-Serif" font-size="10.00" fill="#ffffff">wahoomc.</text>
<text text-anchor="middle" x="313.72" y="-107.2" font-family="Helvetica,sans-Serif" font-size="10.00" fill="#ffffff">__main__</text>
</g>
<!-- wahoomc_main -->
<g id="node16" class="node">
<title>wahoomc_main</title><style>.edge>path:hover{stroke-width:8}</style>
<ellipse fill="#ac2bac" stroke="black" cx="349.72" cy="-190.41" rx="48.72" ry="18"/>
<text text-anchor="middle" x="349.72" y="-187.91" font-family="Helvetica,sans-Serif" font-size="10.00" fill="#ffffff">wahoomc.main</text>
</g>
<!-- wahoomc___main__&#45;&gt;wahoomc_main -->
<g id="edge25" class="edge">
<title>wahoomc___main__&#45;&gt;wahoomc_main</title><style>.edge>path:hover{stroke-width:8}</style>
<path fill="none" stroke="black" d="M323.56,-136.2C327.48,-144.18 332.06,-153.49 336.28,-162.08"/>
<polygon fill="#ac49ac" stroke="black" points="333.14,-163.62 340.69,-171.05 339.42,-160.53 333.14,-163.62"/>
</g>
<!-- wahoomc_constants -->
<g id="node9" class="node">
<title>wahoomc_constants</title><style>.edge>path:hover{stroke-width:8}</style>
<ellipse fill="#f910f9" stroke="black" cx="365.72" cy="-500.9" rx="43.68" ry="21.43"/>
<text text-anchor="middle" x="365.72" y="-503.9" font-family="Helvetica,sans-Serif" font-size="10.00" fill="#ffffff">wahoomc.</text>
<text text-anchor="middle" x="365.72" y="-492.9" font-family="Helvetica,sans-Serif" font-size="10.00" fill="#ffffff">constants</text>
</g>
<!-- wahoomc_constants_functions -->
<g id="node10" class="node">
<title>wahoomc_constants_functions</title><style>.edge>path:hover{stroke-width:8}</style>
<ellipse fill="#c823c8" stroke="black" cx="398.72" cy="-422.48" rx="73.58" ry="21.43"/>
<text text-anchor="middle" x="398.72" y="-425.48" font-family="Helvetica,sans-Serif" font-size="10.00" fill="#ffffff">wahoomc.</text>
<text text-anchor="middle" x="398.72" y="-414.48" font-family="Helvetica,sans-Serif" font-size="10.00" fill="#ffffff">constants_functions</text>
</g>
<!-- wahoomc_constants_functions&#45;&gt;wahoomc_constants -->
<g id="edge8" class="edge">
<title>wahoomc_constants_functions&#45;&gt;wahoomc_constants</title><style>.edge>path:hover{stroke-width:8}</style>
<path fill="none" stroke="black" d="M389.88,-443.96C386.52,-451.73 382.62,-460.76 378.95,-469.27"/>
<polygon fill="#c823c8" stroke="black" points="375.82,-467.67 375.07,-478.24 382.25,-470.45 375.82,-467.67"/>
</g>
<!-- wahoomc_file_directory_functions -->
<g id="node12" class="node">
<title>wahoomc_file_directory_functions</title><style>.edge>path:hover{stroke-width:8}</style>
<ellipse fill="#db2fdb" stroke="black" cx="538.72" cy="-500.9" rx="82.96" ry="21.43"/>
<text text-anchor="middle" x="538.72" y="-503.9" font-family="Helvetica,sans-Serif" font-size="10.00" fill="#ffffff">wahoomc.</text>
<text text-anchor="middle" x="538.72" y="-492.9" font-family="Helvetica,sans-Serif" font-size="10.00" fill="#ffffff">file_directory_functions</text>
</g>
<!-- wahoomc_constants_functions&#45;&gt;wahoomc_file_directory_functions -->
<g id="edge20" class="edge">
<title>wahoomc_constants_functions&#45;&gt;wahoomc_file_directory_functions</title><style>.edge>path:hover{stroke-width:8}</style>
<path fill="none" stroke="black" d="M432.61,-441.98C451.08,-452.06 474.16,-464.66 494.08,-475.53"/>
<polygon fill="#c823c8" stroke="black" points="492.39,-478.6 502.84,-480.32 495.74,-472.45 492.39,-478.6"/>
</g>
<!-- wahoomc_downloader -->
<g id="node11" class="node">
<title>wahoomc_downloader</title><style>.edge>path:hover{stroke-width:8}</style>
<ellipse fill="#bf21bf" stroke="black" cx="398.72" cy="-344.05" rx="46.84" ry="21.43"/>
<text text-anchor="middle" x="398.72" y="-347.05" font-family="Helvetica,sans-Serif" font-size="10.00" fill="#ffffff">wahoomc.</text>
<text text-anchor="middle" x="398.72" y="-336.05" font-family="Helvetica,sans-Serif" font-size="10.00" fill="#ffffff">downloader</text>
</g>
<!-- wahoomc_downloader&#45;&gt;requests -->
<g id="edge4" class="edge">
<title>wahoomc_downloader&#45;&gt;requests</title><style>.edge>path:hover{stroke-width:8}</style>
<path fill="none" stroke="black" d="M426.15,-361.83C442.77,-372.42 464.09,-386.8 481.72,-401.26 502.48,-418.29 501.87,-429.59 524.72,-443.69 567.06,-469.82 584.75,-460.65 630.72,-479.69 633.35,-480.78 636.05,-481.96 638.74,-483.18"/>
<polygon fill="#bf21bf" stroke="black" points="637.07,-486.27 647.61,-487.38 640.07,-479.94 637.07,-486.27"/>
</g>
<!-- wahoomc_downloader&#45;&gt;wahoomc_constants -->
<g id="edge9" class="edge">
<title>wahoomc_downloader&#45;&gt;wahoomc_constants</title><style>.edge>path:hover{stroke-width:8}</style>
<path fill="none" stroke="black" d="M361.09,-357.06C318.03,-371.97 253.96,-398.28 258.72,-421.48"/>
</g>
<!-- wahoomc_downloader&#45;&gt;wahoomc_constants_functions -->
<g id="edge14" class="edge">
<title>wahoomc_downloader&#45;&gt;wahoomc_constants_functions</title><style>.edge>path:hover{stroke-width:8}</style>
<path fill="none" stroke="black" d="M398.72,-365.93C398.72,-373.09 398.72,-381.29 398.72,-389.14"/>
<polygon fill="#bf21bf" stroke="black" points="395.22,-389.1 398.72,-399.1 402.22,-389.1 395.22,-389.1"/>
</g>
<!-- wahoomc_geofabrik -->
<g id="node13" class="node">
<title>wahoomc_geofabrik</title><style>.edge>path:hover{stroke-width:8}</style>
<ellipse fill="#993399" stroke="black" cx="108.72" cy="-344.05" rx="43.68" ry="21.43"/>
<text text-anchor="middle" x="108.72" y="-347.05" font-family="Helvetica,sans-Serif" font-size="10.00" fill="#ffffff">wahoomc.</text>
<text text-anchor="middle" x="108.72" y="-336.05" font-family="Helvetica,sans-Serif" font-size="10.00" fill="#ffffff">geofabrik</text>
</g>
<!-- wahoomc_geofabrik&#45;&gt;geojson -->
<g id="edge2" class="edge">
<title>wahoomc_geofabrik&#45;&gt;geojson</title><style>.edge>path:hover{stroke-width:8}</style>
<path fill="none" stroke="black" d="M136.72,-423.48C145.79,-441.51 134.44,-462 121.84,-477.22"/>
<polygon fill="#993399" stroke="black" points="119.49,-474.6 115.43,-484.39 124.7,-479.27 119.49,-474.6"/>
</g>
<!-- wahoomc_geofabrik&#45;&gt;shapely -->
<g id="edge5" class="edge">
<title>wahoomc_geofabrik&#45;&gt;shapely</title><style>.edge>path:hover{stroke-width:8}</style>
<path fill="none" stroke="black" d="M136.72,-423.48C145.07,-440.07 154.54,-458.64 162.06,-473.32"/>
<polygon fill="#993399" stroke="black" points="158.77,-474.58 166.45,-481.89 165,-471.39 158.77,-474.58"/>
</g>
<!-- wahoomc_geofabrik&#45;&gt;shapely_geometry -->
<g id="edge6" class="edge">
<title>wahoomc_geofabrik&#45;&gt;shapely_geometry</title><style>.edge>path:hover{stroke-width:8}</style>
<path fill="none" stroke="black" d="M136.72,-423.48C145.63,-441.18 189.81,-465.26 223.58,-481.62"/>
<polygon fill="#993399" stroke="black" points="221.78,-484.64 232.31,-485.79 224.79,-478.32 221.78,-484.64"/>
</g>
<!-- wahoomc_geofabrik&#45;&gt;shapely_geometry_Polygon -->
<g id="edge7" class="edge">
<title>wahoomc_geofabrik&#45;&gt;shapely_geometry_Polygon</title><style>.edge>path:hover{stroke-width:8}</style>
<path fill="none" stroke="black" d="M136.72,-423.48C155.6,-461.01 82.87,-443.99 60.72,-479.69 48.36,-499.6 43.54,-525.41 41.84,-546.62"/>
<polygon fill="#993399" stroke="black" points="38.36,-546.17 41.28,-556.36 45.35,-546.58 38.36,-546.17"/>
<path fill="none" stroke="black" d="M114.75,-365.75C119.69,-381.47 127.39,-403.39 136.72,-421.48"/>
</g>
<!-- wahoomc_geofabrik&#45;&gt;wahoomc_constants -->
<g id="edge10" class="edge">
<title>wahoomc_geofabrik&#45;&gt;wahoomc_constants</title><style>.edge>path:hover{stroke-width:8}</style>
<path fill="none" stroke="black" d="M136.72,-423.48C173.61,-496.84 235.22,-452.56 312.72,-479.69 315.58,-480.69 318.53,-481.75 321.49,-482.82"/>
<polygon fill="#993399" stroke="black" points="320.17,-486.07 330.76,-486.26 322.6,-479.5 320.17,-486.07"/>
</g>
<!-- wahoomc_init___main__ -->
<g id="node14" class="node">
<title>wahoomc_init___main__</title><style>.edge>path:hover{stroke-width:8}</style>
<ellipse fill="#ac49ac" stroke="black" cx="385.72" cy="-28.99" rx="43.68" ry="28.98"/>
<text text-anchor="middle" x="385.72" y="-37.49" font-family="Helvetica,sans-Serif" font-size="10.00" fill="#ffffff">wahoomc.</text>
<text text-anchor="middle" x="385.72" y="-26.49" font-family="Helvetica,sans-Serif" font-size="10.00" fill="#ffffff">init.</text>
<text text-anchor="middle" x="385.72" y="-15.49" font-family="Helvetica,sans-Serif" font-size="10.00" fill="#ffffff">__main__</text>
</g>
<!-- wahoomc_init___main__&#45;&gt;wahoomc_main -->
<g id="edge26" class="edge">
<title>wahoomc_init___main__&#45;&gt;wahoomc_main</title><style>.edge>path:hover{stroke-width:8}</style>
<path fill="none" stroke="black" d="M381.73,-58.22C378.43,-79.79 373.24,-110.18 366.72,-136.41 364.66,-144.7 362,-153.58 359.39,-161.65"/>
<polygon fill="#ac49ac" stroke="black" points="356.13,-160.36 356.3,-170.95 362.78,-162.57 356.13,-160.36"/>
</g>
<!-- wahoomc_input -->
<g id="node15" class="node">
<title>wahoomc_input</title><style>.edge>path:hover{stroke-width:8}</style>
<ellipse fill="#b83db8" stroke="black" cx="219.72" cy="-344.05" rx="48.72" ry="18"/>
<text text-anchor="middle" x="219.72" y="-341.55" font-family="Helvetica,sans-Serif" font-size="10.00" fill="#ffffff">wahoomc.input</text>
</g>
<!-- wahoomc_input&#45;&gt;wahoomc_constants -->
<g id="edge11" class="edge">
<title>wahoomc_input&#45;&gt;wahoomc_constants</title><style>.edge>path:hover{stroke-width:8}</style>
<path fill="none" stroke="black" d="M258.72,-423.48C262.1,-439.98 297.15,-462.86 326.23,-479.27"/>
<polygon fill="#b83db8" stroke="black" points="324.44,-482.28 334.88,-484.06 327.82,-476.15 324.44,-482.28"/>
<path fill="none" stroke="black" d="M231.74,-361.95C241.44,-376.81 254.2,-399.44 258.72,-421.48"/>
</g>
<!-- wahoomc_main&#45;&gt;wahoomc_downloader -->
<g id="edge17" class="edge">
<title>wahoomc_main&#45;&gt;wahoomc_downloader</title><style>.edge>path:hover{stroke-width:8}</style>
<path fill="none" stroke="black" d="M363.02,-208.09C370.28,-218.07 378.78,-231.32 383.72,-244.41 391.77,-265.75 395.51,-291.23 397.24,-310.95"/>
<polygon fill="#ac2bac" stroke="black" points="393.74,-311.17 397.97,-320.89 400.72,-310.66 393.74,-311.17"/>
</g>
<!-- wahoomc_main&#45;&gt;wahoomc_input -->
<g id="edge24" class="edge">
<title>wahoomc_main&#45;&gt;wahoomc_input</title><style>.edge>path:hover{stroke-width:8}</style>
<path fill="none" stroke="black" d="M302.61,-195.69C270.61,-201.33 230.47,-214.36 209.72,-244.41 195.46,-265.06 200.68,-294.18 207.83,-315.43"/>
<polygon fill="#ac2bac" stroke="black" points="204.47,-316.45 211.23,-324.61 211.03,-314.01 204.47,-316.45"/>
</g>
<!-- wahoomc_osm_maps_functions -->
<g id="node17" class="node">
<title>wahoomc_osm_maps_functions</title><style>.edge>path:hover{stroke-width:8}</style>
<ellipse fill="#993399" stroke="black" cx="296.72" cy="-265.62" rx="77.56" ry="21.43"/>
<text text-anchor="middle" x="296.72" y="-268.62" font-family="Helvetica,sans-Serif" font-size="10.00" fill="#ffffff">wahoomc.</text>
<text text-anchor="middle" x="296.72" y="-257.62" font-family="Helvetica,sans-Serif" font-size="10.00" fill="#ffffff">osm_maps_functions</text>
</g>
<!-- wahoomc_main&#45;&gt;wahoomc_osm_maps_functions -->
<g id="edge27" class="edge">
<title>wahoomc_main&#45;&gt;wahoomc_osm_maps_functions</title><style>.edge>path:hover{stroke-width:8}</style>
<path fill="none" stroke="black" d="M337.69,-208.02C331.94,-215.98 324.86,-225.75 318.22,-234.92"/>
<polygon fill="#ac2bac" stroke="black" points="315.45,-232.78 312.42,-242.93 321.12,-236.88 315.45,-232.78"/>
</g>
<!-- wahoomc_setup_functions -->
<g id="node18" class="node">
<title>wahoomc_setup_functions</title><style>.edge>path:hover{stroke-width:8}</style>
<ellipse fill="#993399" stroke="black" cx="491.72" cy="-265.62" rx="60.62" ry="21.43"/>
<text text-anchor="middle" x="491.72" y="-268.62" font-family="Helvetica,sans-Serif" font-size="10.00" fill="#ffffff">wahoomc.</text>
<text text-anchor="middle" x="491.72" y="-257.62" font-family="Helvetica,sans-Serif" font-size="10.00" fill="#ffffff">setup_functions</text>
</g>
<!-- wahoomc_main&#45;&gt;wahoomc_setup_functions -->
<g id="edge28" class="edge">
<title>wahoomc_main&#45;&gt;wahoomc_setup_functions</title><style>.edge>path:hover{stroke-width:8}</style>
<path fill="none" stroke="black" d="M377.1,-205.53C397.25,-215.91 425.05,-230.25 448.22,-242.2"/>
<polygon fill="#ac2bac" stroke="black" points="446.33,-245.16 456.82,-246.63 449.54,-238.94 446.33,-245.16"/>
</g>
<!-- wahoomc_osm_maps_functions&#45;&gt;wahoomc_constants -->
<g id="edge12" class="edge">
<title>wahoomc_osm_maps_functions&#45;&gt;wahoomc_constants</title><style>.edge>path:hover{stroke-width:8}</style>
<path fill="none" stroke="black" d="M295.24,-287.48C294.5,-302.9 294.22,-324.37 296.72,-343.05"/>
<path fill="none" stroke="black" d="M296.72,-345.05C301.74,-382.65 251.1,-384.31 258.72,-421.48"/>
</g>
<!-- wahoomc_osm_maps_functions&#45;&gt;wahoomc_constants_functions -->
<g id="edge15" class="edge">
<title>wahoomc_osm_maps_functions&#45;&gt;wahoomc_constants_functions</title><style>.edge>path:hover{stroke-width:8}</style>
<path fill="none" stroke="black" d="M296.72,-345.05C300.07,-370.16 320.82,-388.09 342.74,-400.25"/>
<polygon fill="#993399" stroke="black" points="340.99,-403.28 351.48,-404.74 344.19,-397.06 340.99,-403.28"/>
</g>
<!-- wahoomc_osm_maps_functions&#45;&gt;wahoomc_downloader -->
<g id="edge18" class="edge">
<title>wahoomc_osm_maps_functions&#45;&gt;wahoomc_downloader</title><style>.edge>path:hover{stroke-width:8}</style>
<path fill="none" stroke="black" d="M322.72,-286.11C335.89,-295.97 352.02,-308.05 366.02,-318.55"/>
<polygon fill="#993399" stroke="black" points="363.55,-321.07 373.65,-324.26 367.75,-315.47 363.55,-321.07"/>
</g>
<!-- wahoomc_osm_maps_functions&#45;&gt;wahoomc_file_directory_functions -->
<g id="edge21" class="edge">
<title>wahoomc_osm_maps_functions&#45;&gt;wahoomc_file_directory_functions</title><style>.edge>path:hover{stroke-width:8}</style>
<path fill="none" stroke="black" d="M296.72,-345.05C302.63,-389.3 285.06,-411.24 315.72,-443.69 326.09,-454.67 402.13,-472.31 462.57,-484.9"/>
<polygon fill="#993399" stroke="black" points="461.67,-488.29 472.17,-486.88 463.09,-481.43 461.67,-488.29"/>
</g>
<!-- wahoomc_osm_maps_functions&#45;&gt;wahoomc_geofabrik -->
<g id="edge23" class="edge">
<title>wahoomc_osm_maps_functions&#45;&gt;wahoomc_geofabrik</title><style>.edge>path:hover{stroke-width:8}</style>
<path fill="none" stroke="black" d="M254.06,-283.96C223.63,-296.34 182.85,-312.91 152.23,-325.36"/>
<polygon fill="#993399" stroke="black" points="151.2,-322 143.26,-329.01 153.84,-328.49 151.2,-322"/>
</g>
<!-- wahoomc_setup_functions&#45;&gt;pkg_resources -->
<g id="edge3" class="edge">
<title>wahoomc_setup_functions&#45;&gt;pkg_resources</title><style>.edge>path:hover{stroke-width:8}</style>
<path fill="none" stroke="black" d="M538.72,-345.05C541.92,-368.58 560.6,-387.65 578.51,-400.86"/>
<polygon fill="#993399" stroke="black" points="576.26,-403.56 586.48,-406.37 580.24,-397.8 576.26,-403.56"/>
</g>
<!-- wahoomc_setup_functions&#45;&gt;wahoomc_constants -->
<g id="edge13" class="edge">
<title>wahoomc_setup_functions&#45;&gt;wahoomc_constants</title><style>.edge>path:hover{stroke-width:8}</style>
<path fill="none" stroke="black" d="M538.72,-423.48C527.94,-447.79 461.52,-471.94 414.2,-486.39"/>
<polygon fill="#993399" stroke="black" points="413.25,-483.02 404.67,-489.24 415.26,-489.73 413.25,-483.02"/>
<path fill="none" stroke="black" d="M538.72,-345.05C543.3,-378.71 552.48,-390.42 538.72,-421.48"/>
</g>
<!-- wahoomc_setup_functions&#45;&gt;wahoomc_constants_functions -->
<g id="edge16" class="edge">
<title>wahoomc_setup_functions&#45;&gt;wahoomc_constants_functions</title><style>.edge>path:hover{stroke-width:8}</style>
<path fill="none" stroke="black" d="M510.37,-286.48C522.2,-300.91 535.8,-321.59 538.72,-343.05"/>
<path fill="none" stroke="black" d="M538.72,-345.05C543.4,-379.49 509.84,-398.53 474.41,-408.99"/>
<polygon fill="#993399" stroke="black" points="473.59,-405.59 464.85,-411.58 475.42,-412.34 473.59,-405.59"/>
</g>
<!-- wahoomc_setup_functions&#45;&gt;wahoomc_downloader -->
<g id="edge19" class="edge">
<title>wahoomc_setup_functions&#45;&gt;wahoomc_downloader</title><style>.edge>path:hover{stroke-width:8}</style>
<path fill="none" stroke="black" d="M468.73,-285.51C456.84,-295.28 442.17,-307.34 429.34,-317.89"/>
<polygon fill="#993399" stroke="black" points="427.48,-314.89 421.97,-323.94 431.92,-320.29 427.48,-314.89"/>
</g>
<!-- wahoomc_setup_functions&#45;&gt;wahoomc_file_directory_functions -->
<g id="edge22" class="edge">
<title>wahoomc_setup_functions&#45;&gt;wahoomc_file_directory_functions</title><style>.edge>path:hover{stroke-width:8}</style>
<path fill="none" stroke="black" d="M538.72,-423.48C532.63,-437.22 531.93,-453.76 533.04,-467.94"/>
<polygon fill="#993399" stroke="black" points="529.54,-468.13 534.15,-477.67 536.5,-467.34 529.54,-468.13"/>
</g>
</g>
</svg>
